<mxfile host="app.diagrams.net" agent="Mozilla/5.0 (Windows NT 10.0; Win64; x64) AppleWebKit/537.36 (KHTML, like Gecko) Chrome/133.0.0.0 Safari/537.36" version="26.0.16">
  <diagram name="Page-1" id="uZiRg4nA-0uj0BD-xhsM">
    <mxGraphModel dx="2074" dy="1098" grid="1" gridSize="10" guides="1" tooltips="1" connect="1" arrows="1" fold="1" page="1" pageScale="1" pageWidth="827" pageHeight="1169" math="0" shadow="0">
      <root>
        <mxCell id="0" />
        <mxCell id="1" parent="0" />
        <mxCell id="H38q9NPHP6kc8f1uUd1Z-50" value="" style="shape=flexArrow;endArrow=classic;html=1;rounded=0;" edge="1" parent="1">
          <mxGeometry width="50" height="50" relative="1" as="geometry">
            <mxPoint x="390" y="234.5" as="sourcePoint" />
            <mxPoint x="480" y="234.5" as="targetPoint" />
          </mxGeometry>
        </mxCell>
        <mxCell id="H38q9NPHP6kc8f1uUd1Z-54" value="" style="group" vertex="1" connectable="0" parent="1">
          <mxGeometry x="90" y="160" width="280" height="150" as="geometry" />
        </mxCell>
        <mxCell id="H38q9NPHP6kc8f1uUd1Z-8" value="" style="rounded=0;whiteSpace=wrap;html=1;" vertex="1" parent="H38q9NPHP6kc8f1uUd1Z-54">
          <mxGeometry width="280" height="150" as="geometry" />
        </mxCell>
        <mxCell id="H38q9NPHP6kc8f1uUd1Z-7" value="" style="group" vertex="1" connectable="0" parent="H38q9NPHP6kc8f1uUd1Z-54">
          <mxGeometry x="17.5" y="17.64705882352942" width="70" height="123.52941176470587" as="geometry" />
        </mxCell>
        <mxCell id="H38q9NPHP6kc8f1uUd1Z-5" value="" style="shape=cylinder3;whiteSpace=wrap;html=1;boundedLbl=1;backgroundOutline=1;size=15;" vertex="1" parent="H38q9NPHP6kc8f1uUd1Z-7">
          <mxGeometry width="70" height="90.58823529411765" as="geometry" />
        </mxCell>
        <mxCell id="H38q9NPHP6kc8f1uUd1Z-6" value="EDR File Log" style="text;html=1;align=center;verticalAlign=middle;whiteSpace=wrap;rounded=0;" vertex="1" parent="H38q9NPHP6kc8f1uUd1Z-7">
          <mxGeometry x="11.666666666666664" y="98.8235294117647" width="46.66666666666666" height="24.705882352941174" as="geometry" />
        </mxCell>
        <mxCell id="H38q9NPHP6kc8f1uUd1Z-9" value="" style="shape=flexArrow;endArrow=classic;html=1;rounded=0;" edge="1" parent="H38q9NPHP6kc8f1uUd1Z-54">
          <mxGeometry width="50" height="50" relative="1" as="geometry">
            <mxPoint x="105" y="70.14705882352939" as="sourcePoint" />
            <mxPoint x="157.5" y="70.14705882352939" as="targetPoint" />
          </mxGeometry>
        </mxCell>
        <mxCell id="H38q9NPHP6kc8f1uUd1Z-10" value="" style="shape=image;html=1;verticalAlign=top;verticalLabelPosition=bottom;labelBackgroundColor=#ffffff;imageAspect=0;aspect=fixed;image=https://cdn3.iconfinder.com/data/icons/document-icons-2/30/647714-excel-128.png" vertex="1" parent="H38q9NPHP6kc8f1uUd1Z-54">
          <mxGeometry x="175" y="26.470588235294116" width="74.11764705882354" height="74.11764705882354" as="geometry" />
        </mxCell>
        <mxCell id="H38q9NPHP6kc8f1uUd1Z-11" value="Export" style="text;html=1;align=center;verticalAlign=middle;whiteSpace=wrap;rounded=0;" vertex="1" parent="H38q9NPHP6kc8f1uUd1Z-54">
          <mxGeometry x="105" y="35.29411764705881" width="52.5" height="26.470588235294116" as="geometry" />
        </mxCell>
        <mxCell id="H38q9NPHP6kc8f1uUd1Z-12" value="edr-log.csv" style="text;html=1;align=center;verticalAlign=middle;whiteSpace=wrap;rounded=0;" vertex="1" parent="H38q9NPHP6kc8f1uUd1Z-54">
          <mxGeometry x="188.72166666666664" y="105.29235294117649" width="46.66666666666666" height="24.705882352941174" as="geometry" />
        </mxCell>
        <mxCell id="H38q9NPHP6kc8f1uUd1Z-79" value="&lt;b&gt;&lt;font style=&quot;font-size: 15px;&quot;&gt;Data Extraction&lt;/font&gt;&lt;/b&gt;" style="text;html=1;align=center;verticalAlign=middle;whiteSpace=wrap;rounded=0;" vertex="1" parent="1">
          <mxGeometry x="150" y="310" width="140" height="30" as="geometry" />
        </mxCell>
        <mxCell id="H38q9NPHP6kc8f1uUd1Z-83" value="" style="shape=flexArrow;endArrow=classic;html=1;rounded=0;entryX=0.853;entryY=0;entryDx=0;entryDy=0;entryPerimeter=0;dashed=1;" edge="1" parent="1">
          <mxGeometry width="50" height="50" relative="1" as="geometry">
            <mxPoint x="630" y="330" as="sourcePoint" />
            <mxPoint x="630.1999999999999" y="400" as="targetPoint" />
          </mxGeometry>
        </mxCell>
        <mxCell id="H38q9NPHP6kc8f1uUd1Z-84" value="Included" style="text;html=1;align=center;verticalAlign=middle;whiteSpace=wrap;rounded=0;" vertex="1" parent="1">
          <mxGeometry x="640" y="340" width="60" height="30" as="geometry" />
        </mxCell>
        <mxCell id="H38q9NPHP6kc8f1uUd1Z-80" value="&lt;span style=&quot;font-size: 15px;&quot;&gt;&lt;b&gt;Data Cleaning and Machine Automation Task&lt;/b&gt;&lt;/span&gt;" style="text;html=1;align=center;verticalAlign=middle;whiteSpace=wrap;rounded=0;" vertex="1" parent="1">
          <mxGeometry x="300.00000000000006" y="780" width="240" height="30" as="geometry" />
        </mxCell>
        <mxCell id="H38q9NPHP6kc8f1uUd1Z-86" value="" style="group" vertex="1" connectable="0" parent="1">
          <mxGeometry x="540" y="160" width="180" height="140" as="geometry" />
        </mxCell>
        <mxCell id="H38q9NPHP6kc8f1uUd1Z-82" value="&lt;span style=&quot;font-size: 15px;&quot;&gt;&lt;b&gt;Deploy Web App for Data Visualization Dashboarding&lt;/b&gt;&lt;/span&gt;" style="text;html=1;align=center;verticalAlign=middle;whiteSpace=wrap;rounded=0;" vertex="1" parent="H38q9NPHP6kc8f1uUd1Z-86">
          <mxGeometry y="120" width="179.99999999999997" height="20" as="geometry" />
        </mxCell>
        <mxCell id="H38q9NPHP6kc8f1uUd1Z-56" value="" style="rounded=0;whiteSpace=wrap;html=1;" vertex="1" parent="H38q9NPHP6kc8f1uUd1Z-86">
          <mxGeometry x="0.9668571428571404" width="174.85714285714283" height="90" as="geometry" />
        </mxCell>
        <mxCell id="H38q9NPHP6kc8f1uUd1Z-58" value="" style="shape=image;verticalLabelPosition=bottom;labelBackgroundColor=default;verticalAlign=top;aspect=fixed;imageAspect=0;image=data:image/png,iVBORw0KGgoAAAANSUhEUgAACIUAAAT8CAMAAAAgpVJRAAAB+1BMVEUAAAC7QEC9QEK+QEO9QEO9QEO+QES9QEO8QEO9QEK9QEOvQEC9QEO/QEC8QES+QEO/QEO9QEK3QEC7QEK6QEW/QES9QES/QEKAODj/Skr/S0v/S0v/S0v/QEBwMEB+Njp9NTt9NTt8NTt+Nzl4MDj/Skr/S0v/S0v/SEh9NDt9NTt8Mz3/Skp+Njv/S0t9NTt6NTp9NTp9NTp8NDj/TEx6Mjr/Skr/SEh8NDp9NTt8Mzn/S0t9Njv/S0v/UFD/Skp8Nj3/TEz/Skp+Njr/SUl/NTt+NTl9NDp8NDz/RUV9Njp6NTX/TEz/SUnfRUe5P0P3SkrWREaZOT7SREW5P0KFNjzvSEnFQUStPUHmR0jeRUfaREbNQkWJNzzzSUmxPkKdOj//SkrBQUSNOD21P0KBNjyhOz/7SkqlPECROT6pPEDiRkd8NTp7NDnJQUTqR0iHODq9QEK/QEC9QEL/TEz/S0u8QEO8QEP/TEzeRUj/UFAgIDAjIzAnJzAlJzAlJjAlJzAmJjAlJTAkJDAmJzAmJzAmJzAmJzAlJTAmJjAmJjAgKDAgIDAlJjAoKDAkKDAmJjAhITEmKDAnJzAlKDAmJjAnJzAlJTAjJjAmJzAmJzAlKjAmJjAlJzAnJzAnJzAkJzAmJjAmKDAmKDAnJzAnJzAnJzAlJTAmKDAmf25zAAAAqXRSTlMAQJ/f7//Pn1Bg3xCvEM+/b3AggDB/j48gYL/v/xAQf7//z28gMM+fIO/fUH9f3+8wYN9AUGCAQICfUI/fcBCQUECvgKCPb69AMLAwr3C/z///////////////////////3/////////////+QcP//YN8g75CgkKCAoCAQUHCPn7+AMEDf/++vYH+fICDPIEBfH59vYFCvkFCwzzCgkN+QcM+AoL+PwI9/4Yz3EwAAP0dJREFUeAHs2UEyA1EYBsA/zJ/IRISA+99UvYUqZD3vW+i+RhcAAAAAAAAAAAAAAAAAAAAAAAAAAAAAAAAAAAAAAAAAAAAAAAAAAAAAAAAAAAAAAAAAAAAAAAAAAAAAAAAAAAAAAAAAAAAAAAAAAAAAAAAAAAAAAAAAAAAAAAAAAAAAAAAAAAAAAAAAAAAAAAAAAAAAAAAAAAAAAAAAAAAAAAAAAAAAAAAAAAAAAAAAAAAAAAAAAAAAAAAAAAAAAAAAAAAAAAAAAAAAAAAAAAAAAAAAAAAAAAAAAAAAAAAAAAAAAAAAAAAAAAAAAAAAAAAAAAAAAAAAAAAAAAAAAAAAAAAAAAAAAAAAAAAAAAAAAAAAAAAAAAAAAAAAAAAAAAAAAAAAAAAA/xoAAAAAAAAAAAAAAAAAAAAAAAAAAAAAAAAAAAAAAAAAAAAAAAAAAAAAAAAAAAAAAAAAAAAAAAAAAAAAAAAAAAAAAAAAAAAAAAAAAAAAAAAAAAAAAAAAAAAAAAAAAAAAAAAAAAAAAAAAAAAAAAAAAAAAAAAAAAAAAAAAAAAAAAAAAAAAAAAAAAAAAAAAAAAAAAAAAAAAAAAAAAAAAAAAAAAAAAAAAAAAAAAAAAAAAAAAAAAAAAAAAAAAAAAAAAAAAAAAAAAAAAAAAAAAAAAAAAAAAAAAAAAAAAAAAAAAAAAAAAAAAAAAAAAAAAAAAAAAAAAAAAAAAAAAAMDu7n7p3h8eCgBgnuPS39ZjAQDMcXrsnw7nmgAA4PTUv+3PtT0AgEP/danNAQA8962X2hgAwHXpW8u1tgUAcOkhcTIAgI/JnAwA4GOCJwMA+Jj8yQAAPmZ4LQCACR9z660AAGZ/zLCvTQAAvPcw+WQAAK49zD4ZAIC1h8TJAAA+JnIyAICPiZ4MAOBj8icDAPiY/MkAAD5m2BUAwOyPGdZzAQDM/pjhowAAJnxM4GQAAB8TOBkAwMcETgYA8DGBkwEAfEzgZAAAHxM4GQDAx0RPBgDwMfmTAQB8jJMJAAAf42QCAMDHOJkAAPAxTiYAAHyMkwkAAB/jZAIAwMc4mQAA8DFOBgCY4LT24GQAgMk+e3AyAMBkux6cTB4A+BgnkwcAPsbJ5AGAj3EyeQDgY5xMHgD4GCeTAwA+xsnAF3t32R3HkUYBuHSOJ5xoDYGRKoraK5jsattrWMsohxnMYWb4/1+XK5yM1PLo7al+nl9xz7m33mIPAI7csT5GJ/NYAoA9GS8t5+Wl8eNpmO4e3Qk6mZUnVpumOf7ntbRLALC+kf9vc5IG6N7RnXbPMDPIk83//OWvCQB2ZX05/2hroo/Zv0MPDjSDFH9LALALkzb/VLulj9m/BwaaQYoTf08AMN1m/oV2rI/ZE53MyVPNL6wmAJhqkotOOUQfo5M5far5tZUEANOcybl7DtHH6GROrza/5R8JAKY5m3/b0rY+Riez9wxSnEsdASCFTH+2q4/RyayVDCKFdAHAOOcuOUQfo5NZO9/8vgupAwCsU6fnEH2MTqY8zv0djyUAmGop/6GLE31MR4eODC+DFJcSAEx3Of+xdksf09Hi8DJIcTJNBwA7y3mKdqyP6eZwqtLJkkEUMgDs05VcTM8h+hidzFOnmqnOJwDYjafzLrRjfYxOphwIKbyQmS0A+9Si3dbH7N3hijOIbersAdinFs9M9DGRnUz/M0jxbOoOAPvUfZ4P0ccUiwM4Umab2h0Az+Vd25wMso/Ryaw83+zaauoAAPvUqBwS38foZLofCOl+LAQANvIetFsTfcweLNafQWxTuwPgbN6TdjygPkYn88LUDNL9WAgA7OQ9ascD6WN0MidPNYVtKgAhJ0M65BB9TLFY4+Nc29QAAPapRbutj9mlw9VnENvU7gBYzh0sTfQxAZ1MPzNIcWIldQeAfWrdz3YXR7ugk1l7sSlsUwMA2KfWmEP+NIpwuJIjZdO9lPYIAJbyMHLIkUOjQifT/UCIYyGxAOxTi+WtiT5mmsWKM4htagAA+9SiHetjpjlccwZxLCQAgH1q0Y71MRGdTPyRMtvU/QNgPefYHBLfx+hkTpcMYpsaD8A+df85RB9THK7zQIht6v4BcDnv29LL+piwTiY+g9imAtDVznL+UZXPdu8b/R6dzNpqU9imAnDwruRcdQ55ePQ7dDJr55s74ZUEdAZOhtScQ46MCp1Mp8e5011IQBSwTy22JvqY37RYcwaxTQ0FYJ9atFv6mN90uN4M4lhINAD71KId62N+y7HUKydLBrFNjQdgnzqbHKKPKe7q/5GyrlYTEALsU6fkEH1McbTHB0IcC6kAgH1qsbStjymKY3VmENvUOAC+tJvybFcfU9xVZQaxTY0EYJ86JYfoY4qj/T9S1sWraV8A4LU8A5uTHvUxOpmV55sZOJ4AoFf71OLiRB/zo7v6fyDENhWAAMt5JtotfcyPjlaXQRwLAaCP+9SiHYf3MTqZF0oGsU0FoId28sy0Y33M/933YApw8lQzMy+lfQOApTw77Vgf8z+PRD/OdSxkMADsU4t2Wx/zXwthGWRw21QA7FOLZyYD72NKJxOTQQa5TQXAPrXYnMT3MYPqZNZebIqBbFMBsE+NzyFHRv21EHCkrOfbVABYyvE5JLiPCehk4g+ExG9TAeBMPgDt1mSofUzxyNxnkOLZFAAAX9p1146H2scUCwEZpN/bVAC4kg9GO66/jwnsZMqRsplbTfEAcDKkVzmk9DHD7GROH2+KwrEQAOxTD+aM2cKo/xYCDoT0epsKAJfzAVqapFm4v/Qx/e5kIjKIYyEA2KfO9Nnuo6NiaJ3M2mpT2KYCYJ968Dmk9DGD62TWzjeFbSoA9qkBOaT0MfV3Ml0f59qmAmCfWixvTQbVxxSPzGkGKU6sJACY231q0b4+qD6mWIjLILapANinFu24lj4moJM5+WQT4dUEAHfYazlEO66hjwnoZE6fan7GsRAA7FMjcsi9o/myEHAgpMfbVADYyFGWttO+HCl9TAWdTEAGCT8WAgBnczfxz3bvHs2bRwIySH+3qQCwkyNtTgbRxxQLsUfKunspAcAMLOX4HNL/Pia2k1l5oilsUwGwT71ztib19zHFIwEHQvq7TQWA5Rys3aq/jykWepFBbFMBsE8t2nH/+5igTuaFJ5twryQAqHCfWrTj/vcxAZ3MyVNND1xIAFDlPrVox3X3McU9vXmca5sKgH1qsbFdcx9THHqwPxnEsRAA7FOLzUnFfUzxQHwGsU0FwD61Qw4pfUzdnczai01vrCYAmJ313CObk/g+JriTWXm+mcKxEADsUyNyyN2jefdAwIGQnm5TAeBy7pV26/E6+5jinoAM0s9tKgDsLOd+accBfUxAJxOdQeK3qQBwJfdNO66xjyke6HCkLMbxFA8AJ0Pic0jpYyrtZE4fbwrbVADsU2O129X1McWhIx0OhERYSQAwrH1qsTSprY8pFnuaQWxTAbBPLTYnlfUxxeH0o7XVpqdeSuEAsE+NzyGlj6muk1k730RyLAQA+9TpOeTuUU0WAx7n9nKbCgAbub/arUnpYypyeGoGcSwEAF/axWvHpY+pqZPpcwaxTQXAPrVo3xjV5s2SQWxTAXAypN+uXhtV5npT2KYCYJ/ab1dvjKpy81bTZ8+mAwIAy7n/br81qsnbTe+3qQBgn1q885ZO5mCspoMCADs5yyE6GcdCALBPnZJDdDK2qQDYp0Z49y2djGMhANinhrj6nk7GNhUA+9Q5PB+ik7FNBcA+VQ65bpsKAGWfKofoZE6kgwUAZ/K8uf2+TsY2FQBf2tXzbFcn82o6YABwJecsh+hkjicAcDJkdjlEJ2ObCoB9qjNm1x0LAYDLeU5dfVcnY5sKgH3qnD/b1cm8lADAPnWmOUQn4yM7AOxT5ZCbH9imAmCfmufah++P5tNHtqkxALBP9Wz346YnXkkAMKx9qhzSl07mQgoCAK/lEHLIR7apMQCwT5VDPh76sRAA+CTX4Oq7n+pk5mybCgBnc5T4Z7s6mdUEAHF2chA55GPHQgBwMkQOifGZbSoA9qnVuPr+aI58/oVtKgDDtpxrcvut0fz40jYVAPvUGJ7tfmabCoB9qhwywE7mZAIA+9SAHKKTObGSAMA+dQZnzN7SydimAuBLu14+29XJvJQAwD41IIfoZC4lAIi3nuPIIZ/ZpgJgn1qjq+/rZPp8LAQALuc4zph9aZsKgH1qDM92P7NNBWDAruRcfw7RydimAuBkiBwS3sk8mwDAPvVgfPXuWzoZ21QA7FNDXH1PJ+MjOwDsU50Pie1kHAsBwD5VDik+s00FwD5VDhlAJ3M+9QgAbOSBuP2+TuaxBAC+tPNst/jMNhUA+1Q5JKyTsU0FwMkQOSTAl7apANinDkP/zph9ZpsKwFAt52G5+u5AO5lX088AgH2qZ7tfNwfheOobANjJweSQb2xTAbBPlUNC3PzCsRAA7FNDOGP2rW0qAPapnu3W2sm8lADAPlUOCehkLqU+AoBJjiaHfGubCoB96uB891ZvOxnb1PoBcCYP2dV3P62+k3kl/Q4A8KWdZ7tvNzN0IfUUAFzJ4eSQ67apADgZIoeEuHmrmZXvU28BwFLm6vvxnYxtKgDDcznnzO236uxkVhMA2Kc6HxLRyZxMAGCfKofss5OxTQXgX+zdxbIkNxBAUW1Ma281jBszMzN1NFUNMzw009eb2fOooVJdOucrMiKvUvrUpTCHDH1kB4A+te4zZk3cTiakTQUAfapnu602FQB9qjkkxlCbCkB9Ps6LZw6J38k8djgBgD51xQxG8TsZbSoAVVjCSsYZs/idzPsJAIr3bKaEZ7vjiWMhANTm1UwRc0irTQXAyRBi5pChYyEA6FP53fkmZCejTQVAn8rgQuxORpsKgD7V+ZD4nYw2FQB9qjmk/J3MVgIAfao55EBabSoAlXk6s6vpxZXayXyYAMCXdp7tBuxkHAsBQJ9qDplBq00FoC6ncinMIUPHQgDQp4Zwxmx8SZsKQFVeyezH4Px9S3fl2HyOJgDQp3q2O5Or2lQAqvJaLoY55JI2FQBf2oUwh1zRpgKgT2UHly8Wu5P5KAGAPtWz3YCdzPE0OwDQp5pDrmhTAdCnEjOHXHUsBAB9KjFzyI2K2lQAOJ1n4IzZ9fuW4uatY7N4PwGAL+08253P7XqOhQDAq7kk5pAb2tS9AeBkiDkkZiejTQVAn8rgYuBOZvXbVACY42QI0yZ+J/NiAgB9qme7ATsZbSoA+lRzSMxO5q0EAPpUc0jXOxltKgD6VGfMmqidzNEEAPpUz3YX5bZjIQDoU4mZQ25U0qYCwKlcFnPIzVsHORYCAPpUBqNOdzKr36YCwNOZBZlud7iTWf02FQBeLa1P9Wz35q062lQAeC0TN4fMvpN57HACgAVzMsQcckObCoA+lRmcb7rYybyfAGDlvZIXzTnV+XcyjoUAoE8N4XzIDW0qAPrUEOaQm7ccCwFAnxrCHHJbmwqAPpWZTS/Ot5PRpgKgTw3g2e7NW9pUAPSpIcwhd7WpANTg41wec8jafG0qAOhT2ZhtDhnvuJP5MPUGAFjJlHjGbP3YDl5MvQEAz+YCeba71v82FQBezQUyh4xvORYCgJMhIcwh64toUwFAn8rg4iJ2MkcTAOhTOajPm9l3Mo6FAKBP7ZDzIa02FQB9agxzyFCbCoA+NYQ5ZDw59m8fpZ4BgKdzh5wxa2bdyRxPAOBLu254tjvUpgKgTw1gDvnvTuZwAgAnQzpiDmm1qQDoU0M4Y/bPncz7qYcA4JVM56bNPncyjoUAoE8N4Nlu2/M2FQBey4Uyhwx9ZAeAPjWEOWQ80aYCoE9lGe7sdcas1aYCoE+N4dnuUJsKgD41gDnk953MW6m3AODtXCpzSKtNBUCfGsMcMjyaegwATmdiTbd33Ml8kQDAl3YBPNv9MgGAPjWCOeSrBAAe6wYwhzycAMDlMjpwvrGPAaA2p+xkyjA4f98/fG0fA4CdTAjPdh9KAFCBb3JpzCGiEAAq8W0uiznkuwQAxhC6Nr143/cJAKrxQy4HPyYAkKgS4JUEAFU5+2guAY/+zK6d3MgNA2EYVRqkZo4SJwCBN0HgvZNgDl4ZvbuMPnnf3ct7UXz4q9oEAI9m1yFX4HieHg8AvHhS/d+yIQSAR/ViD/mf1jQBwANrr/9LiDAXOwgAtD3PT/xL8yk9TwEAWLZayin3J/6evp5KKTVtYwIAPjPatteSV+vInzL3XI49tX+aHgCgR7SHywsA/IbRWqrHSZB8zxw3l5rSoj0A4O8ESS05d0VyEeVx1LRJDwD4Z8bS0h4bycM9tfaeS6m78gCAK0mSLe21xEzS7/HUEt1RU2pjTADAdUdJS6l+rJK195uLjp4v1bG1cdN7BwAwoktiLalHlEnuV5Imvfc1iqPUukdzLA+ydQCANhntLKW01+iTsxx6mP9IZYQ1n5Wzo0ZsRG1EbnyrNwAAxsXSfsS4cEYBAAAAAAAAAAAAAAAAAAAAAAAAAAAAAAAAAAAAAAAAAAAAAAAAAAAAAAAAAAAAAAAAAAAAAAAAAAAAAAAAAAAAAAAAAAAAAAAAAAAAAAAAAAAAAAAAAAAAAAAAAAAAAAAAAAAAAAAAAAAAAAAAAAAAAAAAAAAAAAAAAAAAAAAAAAAAAAAAAAAAAAAAAAAAAAAAAAAAAAAAAAAAAAAAAAAAAAAAAAAAAAAAAAAAAAAAAAAAAAAAAAAAAAAAAAAAAAAAAAAAAAAAAAAAAAAAAAAAAAAAAAAAAAAAAAAAAAAAAAAAAAAAAAAAAAAAAAAAAAAAAAAAAAAAAAAAAAAAAAAAAAAAAAAAAAAAAAAAAAAAAAAAAAAAAAAAAAAAAAAAAAAAAAAAAAAAAOADe/eB0LayBWB49q0IjbGObMdgp4d3udxCFvp6IVGKBoQz8vu+DaTQfnTOaOrQvGgvui533erFZToNAID1RR8PDJttk54ZAECzG2Ls5T4BAJy0QXQIAHAC6z6+bZfg/8nVAwmAZ3YR39XvE5y3q/W2vejydT/EF4b+Om8uVtv1ZZMAmNvhOn6gP6bzBFcv2m7TxyRD3sx6eAyAQx8/9iqdG7jaXuQhyl2/bNfpVABEiAw5LzTrXR7iKfLFiyY9CQBNH9NcpvMA612OWVxfrNPZA+gneJ0e5U2Mne2KKjTbbogZDZvtPp01gJjgcRXyNibLadmgaXM8gyxEABUy81LIWJuWC5ptjmeTt00qA6BC3kSBoUkLBeuLIZ7Xy3UqAKBCDlFklcAk5pt6kxlAhZQ/Cjn/hyG4JOkkBtcuTQWokEMUatPCwHoTJ6VDpgFUyLsolNOiwDrHSA0dAqBCNlGqSaBBnt4hACpkiFLv01LA4UOMVNIhACrkMop9TGAndYpd+g4AFXITxf6SFgHeDvGT9dv0TQAqZBXFfkkLALc5yhjL1A9QIX2qHjS7qMOwS18HoEJ+VSGco9s+Ts9V1IAKKXOnQjhDu6jJ0KblAjCRgQKHHGPVbYcAqJA2iuVUM7gZYiamMgBO6kKBi6hSm74AoEIa3005K02OSu0SgAr5wm9R6phqBYc+qpX36TMAKuTufJZT4XaIAme3HPJ7/2NtqgegQo5R6GV6srb/sY8JSr2KcueUIb/Gj60SQD0VkobTD2RW8WNdKgS7qN1wqUIAFfLQKor0SYUgQmbJEBUCqJBmiBJbFYIImSdDVAigQtIfUaBPKgQRMlOGqBBAhaQ/Y7q9CkGEzJAhKgRQIcWnG+9TjRUCb2M+Q59z13V3q7/rum6Tcz/MfFJGhQAqpHwmk1ONFQI3MYPhz659d/uNRNgfb1ZdHubOEBUCqJB0X/7Ns54KgcMQT9Nv2psmTdAc200fT3XdqBBAhfzPp/IIUSGcx2vb++7dPhU53Hzq40k6FQKokAfuyyOkkgqB63i03O7Toxze5XiCVoUAKqQkQ3KTzqpCcDwmt00aOVGIHFUIoEIeuO2Lf3eroELgXTzKcL9PT3Z418+woapCABWSmrv4pnybVAhntJmab9JMjpt4lKxCABXymcOn+Kp8TKnOCoE+yuVjKlDwdVOiVSGACvncYbz7P+RjSpVWCOxmapDTd8iwVyGACvnScZWH+I8/726alGqtEDjM1iCn75CsQgAV8jXN8fju3bvjPpVTIdQ8jxna9Ewu+yjVqhBAhRRYdoVgHnPXpOdzP5TPZOqsEAAVAjOfj+mP6Vkd/owym0VUCIAKGYM3UeJDk57bfZQ51l4hACoEZlhNbdMJ3PZRIi+gQgBUyBjk+acxp57KbKuvEAAVMgbvTvHC9HJ3UaCvvkIAVMgY9DHZ9T6dzn0U2FZeIQAqZAzeFURIk1KlGdJXXiEAKmQMcnmE1Jghx6orBECFjME6puqblOrNkFx1hQCokDF4M8NiahUrqseKKwRAhYzBISYa9pXPiz5WXCEAKmQMVjHRTfopmj4mGpr6KwRAhUD5Md37+u+4aeuvEAAVAsW7qX36af6IiXL9FQKgQqB4N3W/hKPEr2utEAAVMgZDwTym+pnMqtIKAVAhY3BTMI+pfyaT664QABUC5QOZ7UJe79rUXiEAKgTKTsjk9JMdY5q29goBUCFQdkLmuJS7broqKwRAhYxBW/QopP6HIUPFFQKgQqD8EcN2MX/TeF1jhQCokDEoPCBT/8OQbeUVAqBCoGQt5OWCXmzSVV4hACoEStZC9gu6de+XCisEQIWMwWbaD/YqHGKSCisEQIWMwZ8xwcdFbdK+rq9CAFTIGBS/LKT+kcy2ugoBUCFjcFn+Co7qT8msqq4QABUCBVfZ5WVd/9tVVyEAKmQM2tM9XDhVGkSurkIAVMgY3MUE75cVTX3VFQKgQqDgoO5lqsVx1jUWFXL1D00CTkuFQMHZ11SNJqZQId939aK92Fz3QzzU9/11zrnr/sbevWinbithHJ/3Vgwy1ggbbdtZiZtNS+k6geY85zlZvV9SBmzNiPT7vcDGF7b+kSVTJ9Llvmyatm2r+l3Vtg9No1ZGBt3X/Haw70fbNs3mC316P13jXw7a7Aq7L83D7z7Hg925R4X8BOAHviwW/nnl311UyJd21cdC9mW7Tbta94H/Xu/X9UPj6FNw7+G39iHyR4LfrqpmQ5/Opq3//iLH3q+qxqnda/Xah49Off2wQYWgQsBGnPPmVANbVMjNXLuOLDCqxJCPLBH9ymCEWDa1toHFeoMR0TJ5ud+2eY/XNdU68GV+9ZBQIagQKDLIPZVjWguky+PxZT/yZS/ttR7oGkN70YFkXOVZaMw8KHQ+8nWir5s7HYX5FtHXBrNAB/HdJuCaVWCpsHtwlMVPN5vBBzGukKEVIJH2she+7Mf2agT/Co4FvqXPZmAr4brm4ovq+QmiWCFfKh/5Rr7a3FOBVNvIs6iXV73Y5J9rrj943zqFuT8B36b7r5CGBUiEzRD8Kwz86efSUCHDKjIXUCHNKvA8YdeQneXnAQR/mt9hhTSryLeIS15d1/jIt9o+oEJQIYAKWQYqpPHMbF8hTRcXGpg3VDTX+sjLibuH+6qQyfPt+pYWsVlFniU8J1QIKgRQIQKoEEGDmFeIqzwvJ7SJStX4yEsLu3QvFeJmt2Zol7gIvICZZx0VggoBVAgqZPDM9hUin6EXW3Du3v5ABXx7FxXyU4MYd8gUeCG7VESFoEIAFeLpHqFC3IrZvkIazwJmc/e2ByoX2uIrpAm8jJAUGkSkSwVUCCoEUCHf0R1Chewj21fI5A3GZQOui5xZaIuukMEzs/UsRBOsTzoqJEOFACok0N1BhQye2bxCpmA5Lhs0iH2HWFXIc7Q/1IPn5W0TKgQVAua/y+LozqBC9pHNK6TxluOyQYPceYfUCs0r9+boOm7FWcQKFYIKgYxYYkP3BRWyYraukINnDSEV1CAKdqnACnmO9le2CQbnHBUyGyoEIgu0dE9QIUPP1hXiVgbjsoUmsK5YFVchuSYh2lLut5BQIagQMP2N2q90R1Ahh8DWFTJF1hNasjJ41ueTZYXMb165joSG3iT9UCHzoULAf7atuqiQx8jGFTJ4g3HZgOvYRGgLqpAhcD5vJPIYObcOFYIKgTy+/2TLU1Ehz8zGFfIcWVusbB7GWHkrpkIOgXNak4BKDHaoEFQIZHHkT7UwBBXSsXGFOM8GDFaHrNhQSGVUyCFyXr2jC9wLq1ijQlAhkEOV4QtoBxXSsU2F2E8QhJE0DT2bCsmqQhQiRJAhBhdijQpBhUAGe5aIju4BKqRj4wrp2E5Heh4jG4t7+woZovngPwRW84YKQYWA2Xhc0R1AhTyybYU4z5Z2zuBpjJ3KokIMCmCtECEyHSoEFQLLiyzhqXyokAPbVsgQ+P4fU9jHllhnUSEGl7sr5o6rUCGoEFiczzIyGUCFDMG2QvaRralkyBC4EJ1phXjW8ljMlRhRIXoIsEnmviZDUCHB9n/aZy5A3FNuh8jFeDSskI7VxE0pORgTKgQVAgubcgxNBlAhKzatkK6wgdlgXaqBvVmFTKwoOPor17O+3qFCUCGwLMefYjIEFTLZzjrvuBRd3gjhosSNQYUYzENs6a9e2MIbKkQLAX5J5o62yaBChmBaITsuR2cWIQZCsqkQb74hqGMbIypECQEWhsifiJpDhTyZ/je745JUZhFioDepkMl8QcaejQSHCkGFwKJGvv9nMqiQiS0rZMdleTSLEANvBhVisC7UF7NR6Q0VggqBRbnId/9MBhUSLCtkx6XZm71o2MBev0KezGe4AtsZUSGoEFiUn//tM4YK6Sz/k91xceLGaouugZi0K2RjfpgdGwqoEBUE2Kt7L0tDUCFDMKyQjgsUUrEvK4vBr9d1XU3v6vq49j7wLF67QgJb2Op8gQUqVIgGAjySkf/fbgsV8sRLGlUjJL6uj9U0puToXUqHcV8dt6+qawgFXOC5XtfVPjn6O4exmnHIlW6FTCwS/bqaDinR/7l0GKd67eMyN2ZgsbBd19P488egtMTn4OhQIagQWNL3Fu/sMeXGy7Z82Xm81iFHhQx8gxh+MrNCnvl20R/3iT5y2B/npMiWlvXCc8RtdXCXb8sbjzg61QoJfFFcT+mDq3q++ar6K8s3+tPefXiua883q/9FFTJedubL/jtejQC7ZC5lCNqspryEFdJdN/VQT2Ny9Bv30+yDjzdUyIFv5atRkIv7c7B/bcjcKR9/GklqmDxfb6dZIRNfEE+j5Biv114xlRmOI10ynoPdZEj5FSJWz/xlZAB6Zbk+UWFQIYFlXo9Ton/gxv3RRx7zr5Xwk5OHzjGY//IY7WfUlqPrDDeMjaNihQT+J/E4imIr3P6Y7YnfiT6EIESsJkNQIb8BqOav+7ODCplYIK6lA//gSMoFnXF5PEeLvSPzayueNnSLq8dor1chzT8fsCOhyd84+G/4Ar93JDdMwWQyBBXyGwAX7zhDUCFe9KdhDiu+3m4kmflDhc+5m13At45k5nfIqFYhXtYgAqO/fvC/PHXrx/zRN/+rjwoBkNxF5b++DBUSQ1jq8YfCb/nH03LjskBluSjEjzTLSbu4ZBUyLHlxp3D9FZ1ynPVT5OtEVAgqBOwmQ5jfyBAqRGHuQWKY2SAKHbIx29jtR+XHQKPGWNKv1z1/wKf8rcVhvQ78sXhzdw5n7ZU4qBAA+W10t09lUCEzxv3FF4XsEs11MnlrSOBrxYqWcFKdDKl5hrjP3VoCL45uN0WdySdUCIBgMkSgI3OoEPm4b78opB9JbrE/WWuTB09HR8sYA4uNlhXiE93KnXkZsVJdguxQIagQWNJ/mDEd8skqxI82n00+Qig8ltno748Jo8lr471hhVTLT/kY/IfktpqBiwoBmDvrbD8dggqZP+7rjM0+0WKGV91Vm0+qEyEzzvPGqkLiaFnboqcxGXoooEJQIbCoka8XWioUKsQnyurJcFPVSfPf3uiOyDMypDaqkJAK+Lnio/6tNaJCUCGwqDPfIDRUIlRIVdAnCyMtbB9ZLDrNScLe8Ld8ozOpkN4RmWfIyaBwa1QIKgQW5aL939xyqBD5uG+8P6ZPts+DasVLcHa0vCHq/HFe20UI0aQSIQJHrUcyqBCApX4qY9uQJVSIwW/9dCx2tF6WEpPaVMjJ9mmpN6iQ3pmtj8903l9ZZkYjoEIA5H8FiPiWyoEKOTvKbDAfmMm9stRO6wqcjL+Z0alXSO/s//vhs1HgVqgQVAjoTLMLhDZRGVAhR8pua7A+ZUaGjDpTISfzX71utSskOIMLOutDCIw6+69QIQDLLhGLuw0ZQIUIxkK7jzURFZAhXuUCnOx3sHnlCgnJYP1L/hcXHVWWA6NCAOTPZoV6+wkRVMippHfLTIXM3Y0KUyGnAp6WRqdaITGV8N9Pa3djjagQVAgs7cjzbB/IEirkSPlNBhEy7wm+n3mk9vXnYv5hsTbfDu4LeQA55jkBqBAAgS3PFHd2IYIKeaH8hlDMtMwQ875WNJRTfzVLfFWskAzHPFosCpmRQx4VggoBg4ftohBxZAAVEhzl19lHiPwEzRqdN5GF+kJe5/OdYoWE/KO/QGu5DieSHCoEQPeHtr3+GhFUSEgF3SBHms98D+u0tTjxMxrB6VVIst0C/pMd5eGzvjEEFQKgkCHM/aohTaiQlsqZCulJh8/8AtVh8pLlGPk5lvhGrUJO+S+nQLLdlNRaVggqBJAhAr7akBJUyLGguyMk0jHE7HPnQxWEA7J9b33VqpBQxI9q7ozr9qtxhaBCABkiELYqD2dQIYE0TCxyKG13+Tc0x+EcLE+8fID2WhWyzz/6CyTKpWKJb+0rBBUCyBCJPv96VVRIIg1hxnS95bjlaabxHAUn3np9alSqkF3+0V9gZ70aONhXCCoEkCFSvm4oH1TIrqCpEE+KhihcSDjbtDUtru8zH2ZdQvK6yHLJPG6dfYWgQgAbduXitt1QFqiQUNBUSEykqc6wPlW+VjWQlinzesm6iOT1LObtv3sbVEiuCgE4ch5h95BocaiQljQ0M14paZ1GdA35WtWWtLjM6yXrIiYhqkLueZfzI6BCAAROLGe9hxcVEkjFEwt4UjZmeLu5dK2qJz2veddL1kU8/XOl3PM+Z3CjQgAE9oHlbPfwokJa0jCY/KFssIlVvlY1FTY/GTQqJFFGP9i3kPx0rO0rBBUCWKNqv4cXFRIKWoFxInUjC0Ra1rQVjITqt0NUqBCv8MUTGAu4qb61rxBUCOCpjP0eXlRIW84CjGBRlt5k1Bomn0jRIB+4/sfeHe8mbgQBGN/33iysza4xONiNRO4SCJESdOprVkX3Z0XxkdkZO9/3BGkvsn8Zz9qiCnk28UvfWFjDOegrBIUQT2XUz/CikKazs5vaOoWG4o9kVGpET21UNgZvdb6tVyfcu+z/CxRCdFP9OZcobe94OINCtnZ2U5NTKer98WxsPbUVV8hWYQahwd03gTs5Chkf0T7lMsXwhxBBIbWdk6KtUynIPJKZoIyDuEJqhRmExi99JeoEFEJkbBxyabeo3ehQSLKzHJmcTr7R/+eycUjmp7RCksJcS2WytTevEBRCjEMESqMhgkJ+2nnq0Vq+QUc38YLo1b4y8tv2ZmMtxNUC8zUUQiRwWEYAIp0bEQqpzZzQSE6rQfirHybaj6CWmEIGBVCqDLZ6+wpBIcRjGaniZVkVhVh8IDN+FMKkpuAhpYOwQhoj3wV6duLJ7kGhEKKR9TEXbbtyN4VCtmZu8413alXf4KxuLWrSysiTkGBlAPhuXyEohFgPkSy1HQox8xe+v8NDPDAq99/YCCsk2NgKzQ6FoBDCISYGIiikdiV6kf++iPwjGT9/hWRhhQxKClEAZRRAGQohmppDUotCrteYeWXZwWlWzX8xxBtQiLOhkGhEIVVphaAQon0s7pAOheifP03W7/HDN1gMyTfkRRVyMKKQ1++rEBRCNJxLO+TvDoUo31lr0w9kLjUm7qHqCnkSVcirEYUsJ38JQCFEd9Sfiy+IdChEdQIR7L8UbC2/GIJCKiMKqVAICiEWRMq26VCI4tdRov2liyC8yauf11fIMwpBIUYUQjScm1yytEEh/9WTlccdndNtED5nql+vr5DaiEKCQyEohMjvo/p5GRRi5a2dB6ecn/21cKWvEG9EIS0K+TcUQtR/pqIO6VCIykHdMIXzJx9zX08N+gpxoqEQFDI+ouM56a2popBkZfNzcNq96ZpNvrW6QhIKQSEohAw2nJPSYxkUcrCyFjKNUcHT9NdCNBVyQCEoBIWQzY6nj1yo2KGQwudja4GfQ+cl889uuu31FRJRCApBIWS2vtSyahOcfChk3P29msasILjJ1icUgkKuhkKI/Ms5KYxDUIhwJ/NrIZfmfTH8kf83FIJCUAjRMUSF7RAUIlmcxltJ3+d8SGaTDSjkFYVcQiEohBiJbFBIOYU0OodPBLCU3DTz22xBIUsUgkJQCDESkX93CAoZu3ARnYHeZvslmVXKKASFoBAiUyORVLtLKES61US+mX+a6VHdVcwZhaAQFEJkbSQSUEgRhYSJnD2p5nhU93GTckYhKASFEBkciWwcCrFxOR6m8kKN1k0ov1qkfAmFoBAUQmRwJLJEITa2Pp+mopBqMgAJy4tAUAgKQSFEdkciO49CeH/7715mcTV8fAiLdcqXUAgKQSFEtkciO49C9D+Z30zmy/evZpX++NBWy914fqAQFIJCiBRHIjuPQtRv7ofJKORgDh+rtlquU5N/h0JQCAoRjui4jwIMQSF6DzriZBSSnI0e6zYs1rsr+EAhKASFyEU0nJMAQ1CIzkHdJlpol2/I6XYZfcSURUIhKASFkEJsiaxRiGSnPKe8U8nXbViOWDpFISgEhchH1O/X+Qv6hUIEW+c59aRw5uX60ikKQSEohEgv/xUQ2aAQuSIKucMfTZYPhaAQFEK6AZG/UIhY73lODa5EdbsQ8AcKQSEoRCai/s5jM02HQqTKs+rZCfcoABAUgkJQiHRE/V2nZpJHITL5PKtaJ9gqrGUAgkJQCAqRj+iegcgvFCJTj0Juqg5RWyAoBIWgEFKLgUhAIUrvAkMh/mEhLxAUgkJQiHxE/T6JrYagEBRSfT1BFIYgKEQsFIJCiP7QIRGFSPSCQq4TJOuHQlAICiH9cEhAIUV/ChSyUpiCoBAUgkJsRjik8Sik2GdkUIjf6BEEhQiHQlAI0WejeE4GhVy/xqCQVczyoRAUgkKI1OrPii/GRCEoxJJBUAgKQSH2Ix7LRBTy5Z1QiL5BUAgKQSFECvmTwDAEhYzqDYVYMAgKQSEoxH7EOCSikBGhkPEdtQyCQlAICiFSqP+QGYagEBQyPr/IejUoBIWgkPIRfUoMQ1AIChnfKmW90hGFoBAUYj2CIQMKGREKGZHfZsVO3qEQFIJCiDTa59vbopDxoRDjg5Dm1DmHQlAICiHS6dgIvEAVhaCQEW2yWjF451AICkEhNIVgSIVCvjIUcsn/yDo1Mfgid65/2LsX9cRxpAHDdd+KE2GrhIMD3szQEzoZ+pmQZw93+Z//7HlXEFGU7e+7giZtrBdJllEICkEhNSIWZSIKKQ+FlLVLeovicQwigkJQCAohunW/1d2fikJQSHlvSa3L6+ZTICgEhaCQm0d0rD/OoBAUUr4eaFZaHw+DfIZCUAgKIfLQu5aVUEhBvM3OIULy+8PnDAgKQSEohMhVu6xltSikXijkLdvMfzTjIJ+hEBSCQqYasTWkQSEFoRAPG1Pzf/Pjc/0FhaAQFOI4oqhFRRRSsf2yFbJL19LHw2r/9skPFIJCUIj7iEYtKgcUYvuv2K4m0yjnlWrv/FgfmwJ9oBAUgkL8RbTWokYUUq+Dwb/Cb/c1N34chiAFoRAUgkJ8RrTTolYopF7dkhWyr3Lyx3H/FuQzFIJCUAjRvHeGRBRiK7/XRT2WVV6Onyd/oBAUgkKIlrIzJKMQW4WkBaG3XCDNKPVCISgEhRA56IeW9IxC6nU++1iPSX/5AhgUgkJQyFwiWmlJ31CILfzEf3avsEunUcpDISgEhRDNbX9qg0JsT85/lhn2k15QPhYQBIWgEBQy54glmQcUYvt4dLsA8JYUmyAFoRAUgkLmHPFq3VcUYns3/sZUiKrGUcpDISgEhRDNdcdgQiG2W3F6pkIKDIJCUAgKIVrG4IBCbP8Zq8VPhaSD1A+FoBAUQuStrAU9o5BqtYu8yez0rI5B6odCUAgKIXLXu159tyQK4fDUlZ5RGqVCKASFoBD/Ef2qBY0opF55iceWJS3vIwgKQSGloRCiBfxI7VGI7exTkHnVaXknMQiFoBAU4iKiRgtCIca343a5e1P3gkJQCApBIcSjuijkhrNPjcyrbIAQFIJCUAjRTBWyQiG2/44XmVWdP4SgEBSCQoj8DxAohIdkKnS8yZ4QFIJCUAgRCkEhPCTzrmUdxSAUgkJQiJ+IDloQCrEek9slHlmW5KqhEBSCQojYF4JCjkvbnnrQsgZ7G6EQFIJCiFDIshSyX9pt5uhjPQaFoBAUQsSpZSik1YVtDIlaUhrEtHYeCkEhKIRok4pa+f+dikLcnJ7RLu60kF5s61AIClmAQohXsXi/ctZa0DcUUrO4rI0hweVUiBxQCApBIbSo94W+TvchyhGFWF8wcWlnlm3EuGYeCkEhKISo0aKSeExLalFIzUb99+WwsO/HIMYdUQgKQSG0rAcRg/ir1ZICCjFfouhlLq18zhTGeSgEhaAQolbLaicrKEEh5gPgw7L2Tb2IdXkeCkEhKIQoaFnNVB+ReUUh9rMDOSzqQd3R/luLQlAICqFlvbf8YaqbUyMKsd8Yot8W9RYZsa5DISgEhdDCXtaVpvqGjxcUcgO3RplJP1x+2BUKQSELUwhxYIg+T/P8dm1QyC2umCDzyOe2kDgXhaAQFELUTHZjyFpLGlGI/7f3+M3lVyMoCkEhc1EI0ahlxYnuq21RyC3+8FnmkctNMIfFKQSFoBDiIZkcJrkgkwWF+H9uxG3B5Uf9CYWgkPkohOiHltVP8mWnEYVUr9HF7E/duTxLJy1PISgEhRDbU+MUn5DRFxRyo+mzcTEKeRbbOkUhKGQ+CiHaq90h7vaz0t9sbkEPS1KIxFuqFYX85F8hKASFFN8YiHZa2GqK/+qAQurXOJ8MCZ3UyqFCdrpEhaAQFEJsDMlhelMhr4JC6hey78mQvaZ1P8xVIftFKgSFoBBiY4iupjcV8mL09/nuXyG+jmoxOA94e9/NUiFpwgpBISgkycURG0NymNpUiH4zugXFZSlk9LCfueDGm788JfLDnbb2ikJQyKwUQhR0cpMhBy0sGN2C0rIUIllLOngg6nbTXVkhvViWpqwQFIJCVIj+rji5yZCkZUWrW1BemEJWWlIKTlbrYtNe8bvRuJkK8a8QFIJCghD9bY2W9ntx0aMW1tu9vW1ZCglOrpfy1bq0uQtX+s9/cQNw/wpBISikFaLyIcXnUVRvWtpgppB2WQqRtdvrZaefVZgSOTr7w+/VuUJQCAo5f7MeUdTSUpCbt0taWBQzhfQLU8ioRW2Ds43LadMPtecJs5tr379CUAgKaYSo/Fbrck3mFy2tt1PIyoFCPMr19w6f4Y73Xd2BsLUnln+FoBAUUnzpEIU8oTWZRzXeTHvUgr4vTSGj0+slaUm5VEetqx93nTpWCApBIftLj5IkOmpxeZCb9rMWtzH0fV6aQuRdi0qDy8tjU3PPVBSbQpq8QlAICtEgRAU/bL1uDem0vNZyvep5aQrZa1nR5Z6hser7DYLVeoxnhaAQFHK4+MtHFLW8tdyut6zFvZoOt83SFCLJ4VaiqGWluruCGqN5HtcKQSEopLv4vRpEBz2j308CIdqb/m3i4hSy18Ie/e0ZWklpjZuV7l32rRAUgkJ2l98ribKe0eMUEJJsv1k5LE0hkrSw33l7570OlRcrR5PFJt8KQSEoJFx+ZRKt1D9Dfpf1jHrjb1a/OIWMWto43YNkgpdfd1t1rhAUgkIkXzwVSRSyGi7KGCyLJ6nWDy0pulWIgxcQtWLQ9ipCjT6ctVH3CkEhKORdjZ4oJCZDdB3EuHs9q958sB0Xp5BRPTFko6Wl+l+MZHD1e1cICkEhv5rdK4nJEOtzIHZbPatkf5rKZnEKkbWWlg9+TrPT/grUWhl8OOcKQSEopPnCkijRb3pe6SB2dVnPq7/BwyDj4hSyy1pc4wYhKVxj43brazkGhZSHQnwcqUyU9Mwexahwr2eWpGKtlhUdK8TBOt6jE4ToqeYQZHCaX9joJBSCQlBIsDr7kjhA1XRVpkt6boebPMbcOFaIA7pugottE2m4zvdi7WMxEoXUD4UU98Pq+QbiAFW76ZDwk57d5jZ/mDwsTiGjB7WGqNebCpGQb/pleEs6FYWgEBTyq7ImQzar/J+lTq7bY9azy8ON1h1SWJpC5KhnlBuDc0Kq/x8db2nyn7NORiEoBIXszX6SEBtUP9sMcr0OSS+oudkP/m1YmkJCqnC1GB5mp/0V//sf7beEoBAU4kkhQWHIl6J3deWQLuolpRueb78dPCvEwXai1N9253K66tfi9/Y7olBIhVBItSIMIaMXtRg4ZB/1ovJwy2WHNCxMIXLU83odbjlOt3J+jdortBhYKKRKKMT+sbnUClHhmkxBm1aqFh6zXlhz29/7uVmYQsL7zdC6+8Vk33LItzhG5+esU1MICkEhuy8+3UAU9dK2fZBadeusl7a5+SuHU+dbIQ52Nf9+sJNqhZmqlb2xilcjUUiFUEi94tcWaIl2SS8ubzqpUPeY9fLS4OAtO7H3rRAHM2ib4RazZb3F6w1Sb28QFIJCnCik0bNKfRCi0sWHgtKm+ypBkn6pQa5Re/4f4i7IPy50zZ/mpRA56gVtOmuD6MZIoakzNggKqR8KqUH2gvKmH/75vfJBaHmd9GvldX+hBEL/kPWLNY5Wqrbr5q59ks+e2rvmfp1UVYOBQvw/XJUuvVK6tfE8WchqNRsWznQ4CqkdCrH/TbJdr+66v7xXPt31/3evfBZaXh/65dK6aeWs2v4h6dc7eZwiSv+T/mWjf4XYLOTFfrBbsXuTi1vZECt0MZdoakAhKMSrQtq698peaHmFd61SvG+6IP+2p66532at0i8utu0W1NgrxP4Z78LiqjtjlL5PNyFqyNcnVrgrnAvsa45cKASFuL5XPgixQ/VL5e36ftV37dPf4eOp65v7dZk/HLyocdSafZ+bQmSvXyjH1d3wb7l6dx/rEtXg88WmK+TVY9TCkqAQFOJYIaPWLAnxQpla5fRZ1vIslv3NgZ/9K8R6P5HmeN/ctUH+rvB019zHfGOixq8Qq5V/Xmj78z5dj0JQiBeFGEyGBCHOULXPHiHWwH+enULkpHVK2xgf/q913CaDq8OA5tv1fXPXtU/hk1ZP3V2/elgnPbONoBAU4lohO63ZNyEYAkLqA7+fn0LkpI57szkVxaABhaAQ3wqRo1bsRQiGgJD661QPM1SIfKjb9jYMNegkKASFOFdIyFqvKARDQEj9H8PJUiEw5GTDUIOioBAU4l0hcqi/iY5gCAip+2M42CkEhpxsbq0GpQGFoBD/CpG11qsV4oFd922HyT079M1MIewNOc3n0x1kAgpBISgkJK1WIwRDvBeDs9e2FfRipRAYcpJqrb18FBSCQlwrREbOLasR7d51Ch3FrKPWKhopBIY05ucKG1zpKASF+FaInDi3jKxGXf+jjMtRKM9VIXLI6qi8n8/84DZMRSEoBIXImnPLyMEahEHpbaKrVK2BQljJS2/z+XBpMBi5UAgKcfeTrRdicwhbQurvUG2urxBW8tIwny9EGgxGLhSCQrx9VTi3jHYfrMZc4wnmh6srhM0hH2E+Lk/D9UYuFIJCPDOEc8vot8xqTH2GpDkrRPZpvkbdpVsiBIXUVwgK8c2QHIRcxrMyxzDp89yer6oQVvLSOKPPlgaDkQuFoBCfX5VRyGFMh2zHiY+w/TUVwqrML2FGLN8Gg5ELhaAQp/fKRshd7A7Jp8n/0H+5nkKYDsnNnB5hP9qOXCgEhfgS+3chMl3pLygOctPCWr/c69UUwnRIHOb0CHtjPHKhEBTiS+xZ/ieiU1IfxXEWA2yYvUJkt/a/I8T7TE8arUcuFIJCnIn9WYgcLcukXjw0JsMtV+UKYQotn4JYFI720zooBIX4U4iB2HshN+GQ3Mzmb9FcQSFMocVhTsLKjf3IhUJQiDexvwg5CYekJsznd/736grhkonjrD5ZHOxHLhSCQtxNHb8KuQiHxF58tfsS8XNlhXDJxHFWzwHlxmTkQiEoxKBTxU10RLt9muGeVPvx9bm+Qvw6JM30Atkn+1P5UAgKMVSI/b2yYBMd0T7633Jo0xj10vqlKMSArnkzzmvjS3wzHrlQCApx4JDyPy/R7pj8T4OYNH7oZb34V4h/ujpA6u6UrK94FIJC7BVi65CCuxvR+JEsCGK/I9VoveF1AQoxoGtejzN7IDmOhiMXCkEh/u+VWf5JRIePZECQmS5RZf8K8U/X2IR5TfTkY2s/cqEQFGLWfq1nl1v5pxGNx3e9SvlhH2Q67c4bh3LcB/8K8Q2R7Aqpu2MyQBUKQSEGCnF2r/xP9uxAQ2IYCAPwg8fIDLkGoQODEIPcveix6N1xt223dTT9vzeYmj/5d7OWCoDZcjq5gfC7XvE7bLxfu+u9Y9WI3w5KrmGwfpWWpQcYW6gffWPO67acAzTL/ax3frrwHT1X5+lZqOJjOgjq/HoDsTDaX4PHezfAWGdl3ttAAILKsSoysVsZoZIpeeaevgZLnaNTLT9CBUrrv4gu1+Jm2z+U3XIxAIKS/HpWtlcjARDUnHd3kZSdahnxc6wNBa1K5LTaUHsUu8zJFKpw2lG8AeDUIAAUreKZ0/S8fPQcxR71A7AxJB6ZOS065xiFTEu4ZiGX/FcZmf6jeAMAQGmq1YxkQWamWu7yPAFIQDX7tv3asPuf7cGBDAAAAMAgf+t7fNUVAAAAAAAAAAAAAAAAAAAAAAAAAAAAAAAAAAAAAAAAAAAAAAAAAAAAAAAAAAAAAAAAAAAAAAAAAAAAAAAAAAAAAAAAAAAAAAAAAAAAAAAAAAAAAAAAAAAAAAAAAAAAAAAAAAAAAAAAAAAAAAAAAAAAAAAAAAAAAAAAAAAAAAAAAAAAAAAAAAAAAAAAAAAAAAAAAAAAAAAAAAAAAAAAAAAAAAAAAAAAAAAAAAAAAAAAAAAAAAAAAAAAAAAAAAAAAAAAAAAAAAAAAAAAAAAAAAAAAAAAAAAAAAAAAAAAAAAAAAAAAAAAAAAAAAAAAAAAAAAAAAAAAAAAAAAAAAAAAAAAAAAAAAAAAAAAAAAAAAAAAAAAAAAAAAAAAAAAAAAAAAAAAAAAAAAAAAAAAAAAAAAAAAAAAAAAAAAAAAAAAAAAAAAAAAAAAAAAAAAAAAAAAAAAAAAAAAAAAAAAAAAAAAAAAAAAAAAAAAAAAAAAAAAAAAAAAAAAAAAAAAAAAAAAAAAAAAAAAAAAAAAAAAAAAAAAAAAAAAAAAAAAAAAAAAAAAAAAAAAAAAAAAAAAAAAAAAAAAAAAAAAAAAAAAAAAAAAAAAAAAAAAAAAAAAAAAAAAAAAAAAAAAAAAAAAAAAAAAAAAAAAAAAAAAAAAAAAAAAAAAAAAAAAAAAAAAAAAQNItiUftwSrPAAAAAElFTkSuQmCC;" vertex="1" parent="H38q9NPHP6kc8f1uUd1Z-86">
          <mxGeometry x="42.058285714285695" y="18.181818181818187" width="93.22727272727272" height="54.54545454545455" as="geometry" />
        </mxCell>
        <mxCell id="H38q9NPHP6kc8f1uUd1Z-92" value="" style="rounded=0;whiteSpace=wrap;html=1;" vertex="1" parent="1">
          <mxGeometry x="74" y="420" width="680" height="350" as="geometry" />
        </mxCell>
        <mxCell id="H38q9NPHP6kc8f1uUd1Z-38" value="" style="shape=flexArrow;endArrow=classic;html=1;rounded=0;" edge="1" parent="1">
          <mxGeometry width="50" height="50" relative="1" as="geometry">
            <mxPoint x="184.43" y="492.65" as="sourcePoint" />
            <mxPoint x="244.42785714285714" y="493.02571428571434" as="targetPoint" />
          </mxGeometry>
        </mxCell>
        <mxCell id="H38q9NPHP6kc8f1uUd1Z-42" value="" style="shape=flexArrow;endArrow=classic;html=1;rounded=0;" edge="1" parent="1">
          <mxGeometry width="50" height="50" relative="1" as="geometry">
            <mxPoint x="553" y="493.13" as="sourcePoint" />
            <mxPoint x="605.8178571428571" y="492.6542857142856" as="targetPoint" />
          </mxGeometry>
        </mxCell>
        <mxCell id="H38q9NPHP6kc8f1uUd1Z-17" value="" style="shape=image;verticalLabelPosition=bottom;labelBackgroundColor=default;verticalAlign=top;aspect=fixed;imageAspect=0;image=data:image/png,iVBORw0KGgoAAAANSUhEUgAAAgAAAAIACAYAAAD0eNT6AAAABHNCSVQICAgIfAhkiAAAAAlwSFlzAAAOxAAADsQBlSsOGwAAABl0RVh0U29mdHdhcmUAd3d3Lmlua3NjYXBlLm9yZ5vuPBoAACAASURBVHic7d13mCZVmbDxe2aYgRlyzqAEEQRFESUnCYIKqxJWxLAqrq45fOYVTGBcxbiCrCJmV0RFREFFRBRUkgpIBslB0gQYZrq/P8700gw90+9b59Q5Fe7fdZ0Ll6Xffk7V2/U8VXUCSJIkSZIkSZIkSZIkSZIkSZIkSZIkSZIkSZIkSZIkSZIkSZIkSZIkSZIkSZIkSZIkSZIkSZIkSZIkSZIkSZIkSZIkSZIkSZIkSZIkSZIkSZIkSZIkSZIkSZIkSZIkSZIkSZIkSZIkSZIkSZL6YkrpAFpoA2CLRW1VYEVgZWBqyaCklnoQuH9Ruw+4Abhi0T8l1cgCYHJrAQcBewF7AmuXDUfqhQeAy4DfAmct+ufcohFJHWMBMLGpwIHAK4BnA9PLhiP13kPAOcDJwCnAnLLhSO1nAfBo04DDgXcBWxWORdLEHgC+D3wOuLhwLFJrWQA84qnAF4EdSgciaWBnAe8Hfl86EKltLADC4/1jgbfgQD6prc4A3ghcVToQqS2mlQ6gsI2B04FDsBiS2mwz4NXAssD5wMNlw5Gar89Jb1vgZ8A6pQORlNRVwGHARaUDkZqsr08AdgN+DqxROhBJya0OvBy4B/hj2VCk5upjAbAd8AtgpdKBSKrNMsABwCbAacBI2XCk5unbK4DNgN8RFveR1A+nAYcC80oHIjVJnwqA5YA/AE8pHYik7H4LPIewhoAk+jXt7dOY/KW+2pUw6HfF0oFITdGXJwC7A7+mP/2VNLHzgP0Jmw9JvdaHhDiDsFzolqUDkdQIFgESYaRs172eepL/RcClwE3A7YTNSiTFO4Ywla8uOxEWANsfxwRInbUccAswmqjdBryNsIKgpHpcT7q/2aW1c3FMgNRZryHNheIh4GhghazRS/10PXkKAIsAqcMuJP4CcRewZ+7ApR67nnwFwChhbRAXBpM6ZGviLwy3ApvmDlzquevJWwD4JEDqmA8Td0GYB+yYPWpJ15O/ALAIkDrkD8RdDN6YP2RJlCsALAKkDliRsB941YvANYT1AyTldz3lCoBRHBMgtdoexF0ADs8esaQx11O2APBJgHqhq3sBPDHiZ+cBP0oViKRW2hk4A58EqMO6WgBsEfGzZwJzUgUiqbXGVgz0SYA6qasFwNoRP3tesigk5XYM4RF+KjvjLoLqqK4WADF/rLcki0JSbscDRwIjCT/T1wHqpK4WAMtH/OxtyaKQVMKJwGtJ+yTA1wHqnK4WADG7HD6YLApJpfgkQJpEVwsASToReDVpi4CdCGMCLALUehYAkrrMIkBaAgsASV1nESBNwAJAUh9YBEiLsQCQ1BcWAdI4FgCS+sQiQFrEAkBS31gESFgASOoniwD1ngWApL6yCFCvWQBI6jOLAPWWBYCkvrMIUC9ZAEiSRYB6yAJAkgKLAPWKBYAkPcIiQL1hASBJj2YRoF6wAJCkx7IIUOdZAEjSxCwC1GkWAJK0ZBYB6iwLAElaOosAdZIFgCRNziJAnWMBIEmDsQhQp1gASNLgLALUGRYAkjQciwB1ggWAJA3PIkCtZwEgqWlGI3425zXtROC1xMW7uJ2A04EVE36mNCELAElNMy/iZ9dIFsVgjgeOJO2TgJ2BM/BJgGpmASCpaR6I+Nn1kkUxOF8HqJUsACQ1zT0RP7tNsiiG4+sAtY4FgKSmuTriZw9KFsXwfB2gVrEAkNQ0V0T87HbAZqkCqcAnAVJh5xD+AKu0XQvEK+kRu1D973cU+Hb+kB9jbExATD8Wb78FZubshNRGFgBSe80AZlP9b3iEcNdcWh1FwKnAtJydkNrGAkBqtzOIS5Q3A+tnj/qx6igC/jtrD6SWsQCQ2u2VxCfKC4F1cgc+gTqKgLdn7YHUIhYAUrutBMwlPlHeCDwtc+wTSV0EzAeenrUHUktYAEjt91XSJcsvAGvlDf8xUhcBVwIrZO2B1AIWAFL7PRFYSLqEOQc4BXgZsCVlptWlLgK+nDd8dcmU0gHU5ByqJ/LdCNNtJJX3HeCwGj9/DuEJQU4rk24NlhHgGcCfE32e1Ho+AZC6YSPipgT2of2O7t7MqUauBCipyW4EPlw6iIbbCTikdBBqHwsASU33SeDc0kE03H/iUwANaZnSAaiyZYBtCdufLls4lrZ7GLgNuBh4sHAseqwFwIuAi4A1CsfSVFsD+wC/KB2IVFqXxwCsBnwCuJvy7x671h4gjKousae8JrcHMI/y35Omtp9XPrJSh3S1AHgKcAPlLzRdb3cRko2a5wWEJwKlvyNNbCOU3QlRLeMYgPbYmPB4b6PSgfTA6sBphFcsapZTgIPxVc1EplDvlEl1jAVAe3yJ8iuZ9cnywEn4N9JEpwLPAe4rHUgDHVo6ALWHF7d2eAqwf+kgeujJeNyb6lfAdrgAzuKeTFhBUZpUVwuAmDuDe5NFkc6BpQPoMY99c10D7AwcS5jJoeBZpQNQO3S1ALi24s8tIAyya5rNSwfQYx77ZnsIeA/hKdlZhWNpiiYPZFaDdLUAOK3iz50D3J8ykERmlA6gx5YrHYAGcjlhHvwuwM8Io+L7ygJAA+lqAXAWcGGFn/tY6kASubl0AD32j9IBaCi/Aw4ANgHeD1xWNpwi1gM2KB2EVNJTCTt9DTqH9n/KhDmQAyg/x7iv7cgBzo+abT3gxcBnCE8HriWM9Sn93aqz7ZnkyKnTur529D7A94BVJvnvvgW8gvA+sYmmE+5kXOQjr7sJx7yJA0OVxkrAtNJBLMGOwE8r/uy/A8cnjEVqpY2BkwkLhyxeJV8BHE47CqH9gYWUv7PoU3vFQGdGqseuVP/ufrxAvFJjrQjsC7wceCGwVdFoqnkdFgG52jEDnhOpLjEFwIkF4pVUs30JI55LJ8iuthtxOVU1Q0wB8P0C8apl3A64fX5B2Ppzd2AvYENgZtGI2u8h4BbCNNCzaO5YEGlQK5UOQJIkVRPzBOCcAvGqZbq6DoAkSVoKCwBJknrIAkCSpB6yAJAkqYcsACRJ6iELAEmSesgCQJKkHrIAkCSphywAJEnqIQsASZJ6yAJAkqQesgCQJKmHLAAkSeohCwBJknrIAkCSpB6yAJAkqYcsACRJ6iELAEmSemiZ0gFkMgt4DrA7sA4wB7gCOBW4vGBckiSpJi8DbgVGJ2gjwHeBNYtFJ0kT25WJr1uDtHMKxKuW6foTgI8B71jK/38KcCjwDGAv4LocQUmSVJNZwD7A0wk3t3cAfwLOAuYWjCurVzJcxXwpsGyRSCXpsXwCoGFMAd4A3MnE34k7gNct+u86bSWWfBCW1t5SIlhJmoAFgAY1A/g2g303vglMKxNmHi+j2h+NAwIlNYUFgAYxA/gRw30/PlYk0ky+RvU/nHXzhytJj2EBoMlUSf6jwAJgy66uA7BexM9ukCwKSZLqMQP4PnBghZ+dBry2qwXAcoV+VpKkusUk/zF7d7UAkCSpi1Ikf4CNLAAkSWqHGYTF62KTP8D8ri8EJElSF6S68x9ztU8AJElqttTJH+CnFgCSJDVXysf+Y2YDX7IAkCSpmcaS/78k/tw3Anc4BkCSpOap47E/wFHAVwF8AiBJUrPU8dgf4Gjgg2P/hwWAJEnNUddj/6OBD4z/FxYAkiQ1Q7bkDxYAkiQ1QdbkDxYAkiSVlj35gwWAJEklFUn+YAEgSVIpxZI/gOsAtNMKhC/MnsB6eB7VTqPA7cB5wA+AO8qGI2VVNPl32TmEi0uVtmuBeIfxUsJFs2r/bLYmttnA+/Cp5Hi7Uv14nlMgXg1uBvBD0v8dHTVMEP6xtcuHgZOAtUoHIiW2PPAh4HvAtMKxSHVqzJ2/BUB7HA68t3QQUs1eSM8fX6rTGpP8wQKgLWYCnygdhJTJ24HHlQ5CSqxRyR8sANriAMJgP6kPlgVeUjoIKaHGJX+wAGiL3UoHIGW2e+kApEQamfzBAqAt1i0dgJSZT7zUBY1N/mAB0BazSwcgZfZA6QCkSI1O/mAB0BZXlA5AyszvvNqs8ckfLADa4lTCIg9SX/ywdABSRa1I/mAB0BZXEr5QUh9cDPy4dBBSBa1J/mAB0CavB64pHYRUs9mE5a5HSgciDalVyR8sANrkbmBv4C+lA5FqciuwD37H1T6tS/5gAdA21wPbA2/FQVLqjpuBY4GtgD8UjkUaViuTP7iNbBs9BHx6UVsP2IiwPbDUNvOAWwiFrYNc1UatTf5gAdB2tyxqkqS8Wp38wVcAkiQNq/XJHywAJEkaRieSP1gASJI0qM4kf7AAkCRpEJ1K/mABIEnSZDqX/MECQJKkpelk8gcLAEmSlqSzyR8sACRJmkinkz+4EJAkSYubAXwPOCjx5x5NQ5I/+ARAkqTxepH8wQJAkqQxvUn+YAEgSRL0LPmDBYAkSb1L/uAgQElSv80Avg8cmPhzj6Zc8p9K2Cp+deAu4B/ASKFYsjuHsL94lbZrgXglaXG7Uv06dk6BeNtoBvAjqh/nJbWjcnZinHWB44DbF4vntkX/fp1CcWVlASCp7SwA6jUDOJXuJP/9gHsmie1+4HmF4svGAkBS21kA1Kdryf9g4OEBY5wP7FkmzDwsACS1nQVAPbr22P9QBk/+Y+1mYFaJYHOwAJDUdhYA6Zn8H2lvKhBvFhYAktrOAiAtk/+j29lOA2yvpwF7AevT4Uc56rSHCKOTzwN+CywsG446bGyef1em+h0MfJO4qfxPShRL43T5CcCOwAWkr2JttpLtGuAFaDyfAKThnf/EbV7uwHPpagHwEsJdU+mLtc1WV/swGmMBEM/kv+R2jUsBt8cewImEL7TUVe8FjiwdhDrBx/5Ld3aiz2mcrj0BmAb8lfJ3ZzZbjnYvYQnTvvMJQHXe+U/edvEJQDs8iw4P2JAWszLhdZdURdfW9j+UtHf+AN8BznUWQDvsXToAKbN9gM+UDqLFngpcBiwLTCEkj9uBOxa1vwEXLWr/LBRjHUz+k7uIRa/ZLADaYcPSAUiZbVQ6gJZbAdhysX+3pOvItcBphMR5Hu3dNc53/pO7BNgXmA1hy0A134LSAUiZPVw6gB7ZBHgjYS2GfxASXtvGYIwl/4MSf+7RlEv+3yZ98t+bsD0wYAHQFteUDkDKzO98GesRBrrdCHwRWLtsOAMZe+zfleR/KOmT/8WEsWR3TfYfdkHXZgFsT/mR2TZbzvZyFDMLIFWbTUiEM+vtamV93tVv0HYxsEbOTpTWtQIA4CzKXwxsthztemA5+m1l4CTKn4uxdg1hFdImcarf5O0i2vc6J1oXC4AtgHsofyGw2epsD+Osl+cR3sWXPhcTnZuPAtPr6/rAvPOfvPXuzn9MFwsAgJ0IU3lKXwhstjraXOBf6a8NgR9T/jxM1s4EVqrpGAzCO//JWy/v/Md0tQAAWBc4gXCxLH0hsNlStAWEu7mt6KepwKuB+yl/LgZtfwE2qONgTMI7/8nbwHf+U9L1o1HOoXoi340wHabplic8EViPsNiH1DYLCNsBnw/cXTiWUp5CKOi3Lx1IBdcT5pRflen3ucjP5C4mvELr698T0O0nAJLabyYh8bR9d89beeyCQ3Xwzj/hnX/XWQBIaqo9gL9TPnm3pQgw+Zv8h2IBIKlp1gROpnzCrqPdBGye7lD9Hwf8Td56PeBvIhYAkprkOcAtlE/UdbbUTwK885+8eec/AQsASU2wCvBlyifnthUBJn+Tf2UWAJJKK3HX/xfCYj0vJ1zLNgWeAGxHGB3+TsKmOXfVGEPs6wAf+0/efOy/FBYAkkpZCTiRfEn/XsI0tk2HiHEG4a70jJpiqloEmPxN/tEsACSVsD1wNXkS/1zgGGC1yJj3JDw5KF0EmPxN/klYAEjKaQrwdmA+eZL/GQx3xz+ZZQjrEowkjnPQIsDkb/JPxgJAUi5rAj8lT+K/FXhpjX05GJhTQ8xLGxjogL/JmwP+hmABIKluU4AXERJc3Yl/IfAFwqyCuu1M+n0JlvQkwDv/yZt3/kOyAJBUp72BP1F/4h8FLgF2yNOt/7MjcF+C2Me3xZ8EeOc/efPOvwILAEl1eCrwc/Ik/jnA20i7WcwwdqK+JwHe+Q+W/L3zr8ACQFJKjwe+QXgUnyP5/wbYLEvPlq6uIqCO6YcmfwEWAJLSWI2wsM488iT+OYTFeqbm6NyA6ngd0JXk72P/BrIAkBRjFiER30O+JNaUu/6JNLkIMPnrUSwAJFUxlTDN7mbyJbB7gVcTZhU0WROLAJO/HsMCQNKwng9cTt4EdiWwfo7OJVLHmIC2JX/f+TecBYCkQe1AePxeIomNAG+sv4tJNeFJQKnk751/C1gASJrMEwk745VMZBYBJn+Tf2IWAJKWZH3gy6S/mFsEmPxblfxLLTCheCsRluxcF89jH8whvJ++iHDx0PBWJCys8w5gZuFYFjcF+Myi//3ZkoEM4ffAswlz+lfK8PuOJmx7nNvBwLdJe529hLCa5F0JP1OLdPkJwIbA14AHKX/XYsvfbiCMGG/SPPGmm0E4ZrdT/vxN1nwSMHE7KltvHq2Td/5d19UCYFdCxVj6ImUr334CLI+WZipwCHAN5c/XMM0i4NHtqIz9GM/k31JdLAC2JMwXLn1xsjWn/YDmzx0v5QDgUsqfo6ptBHhD8qNSrzqmCN7HxLsI1s2pfi3WxQLgV5S/KNma1w5B421Pd/5WfBIQ2uK7CNbNO/+W61oB8EzKX4xszWwXIICNga8Tkmbuc7CQMJ3wScAvE3+2RUBouYoAk38HdK0A+ABlkout+W0EWJv+WoOwWU+pQbFnAtuOi2cWFgHQziLA5N8RXSsAvkGZi5utHW1H+md5wmY9pRajuQDYcwmxWQQEbSoCTP4d0rUC4NuUucjZ2tF2oT+mE6b03UqZY/13wriLyQZfWgQEbSgCTP4d07UC4GOUudjZ2tE2ovumEBLvVZQ5xncSnjjMGCJmi4CgyUWAyb+DulYAPIsyFz1b89vf6L6dgXMpc3xnE8YYVF3pziIgaGIRYPLvqK4VAFN5ZAlYm218ew3d9STKbdYzn7BfwDoJ+mEREDSpCDD5d1jXCgAIcc2nzMXQ1sx2HuGdeNdsSEi+C8h/TEcIRcdmiftkERA0oQgw+XdcFwsAgMNxDwBbaBeR5u60SVYjPG6fR5ljeiawXY39swgIShYBJv8e6GoBAGGls/Moc4G0lW/zgE/SrX0AZhEG2N1DmWP6V/KtqGgREJQoAkz+i+nqOuLnUD2R7wb8NmEsddmGMA95I8I2p+quEcJOdn8nbL16T9lwkpkKHAEcC6xX4PffCHwEOJGwml8uswibOe2V8DNHgTfTnq2EIRQBqbcSvo1wXC9f7N+7pW+PdPkJgNQFexMuoCXu+O8mPHFYrvZeLplPAoIcTwK88+8ZCwCpmXYAfkOZxD+HMMZgldp7ORiLgKDOIsDk30MWAFKzbAX8iDKJ/2HCrIISrxkmMwv4NemLALcSDq/NTP49ZAEgNcP6hOSb+kI8aDuTMF6myXwSENTxJMDk30MWAFJZKwBHA3Mpc7H+PWFAb1tYBARNLQJM/i1iASCVMYOwWc/tlLlQX06+KX2pWQQETSsCTP4tYwEg5TWVkHivocxF+iZC4ZFymlcJFgFBU4oAk38LWQBI+ewNXEiZC/T9hFcNM+vuZEYWAUHpIsDk31IWAFL9tid9ohq0PUQYXLhW7b0swyIgKFUEmPxbzAJAqs/GwNcJCSX3hXkhYbOex9fey/IsAoLcRYDJv+UsAKT01iAspFNqQ6ozgW1r72WzWAQEuYoAk38HWABI6SxPWDq31PvYCwj7XvSVRUBQdxFg8u8ICwAp3nTgdZSb0nclYWZBVzctG8Ys4FekLwJcMTC0SzH5d4YFgFTdFELivZIyif9OwhOHZevuaMv4JCCo40nAbYTlqtUBFgBSNTsB51Im8c8mjDFIuT1s11gEBBYBWiILAGk4WxFG15dI/PMJU/rWqb2X3WAREFgEaEIWANJgNiQk3wXkT/wjhKJjs9p72T0WAYFFgB7DAkBautUIj9vnkT/xjwJnAdvV3stuswgILAIqavu62UpjNWALYF3CnulrEbZxXZswMnYZwsVm2UVt1qKfu5fwxzKbsN3rbOBmwiCu2xa1W4GrgBsIi7iorFnAm4B3AKsU+P0XA+8Cfl7gd3fNXOB5wGmkmyY5BfgM4e/6c4k+s26/B/YHzgBWTPSZaxPWndiDcP1Si/gEYGIzCf17E/Al4Nfkm+L1IPAX4H+BY4CDgQ3q7a7GmQa8irBpTok7/uuAIwibBiktpwgGdUwRvBnYPGcnFM8CIFiXMJ3r08AfCIOtSlz8J/sDO4Uw7WsHQqJSWgcBl1Hm/N4JvAWn9NXNIiCwCFBvC4CphPeq7yRM5SqxVntsewD4CWFr143SHp7eeSZwNmXO4xzCGIMSrxn6yjEBgWMCeq5PBcAywHOAk4G7KJ/AU7cLCe+rN051wHpgS+BUypyvh4HjCWNJlJ9PAgKfBPRYHwqA7YHjKLdMa+42AvyOcCHq6hawsdYHTiAk4RLn6IeE4kNlWQQEFgE91dUCYCXC47jLKZ+QS7aHgG8Bu8Qdzs5YmTCwcg5lzsdvCRfbPlsO2I8ww+FYwkDbZ1Bu0KNFQGAR0ENdKwA2I9ztl9qNrcntEuA1wAqVj257LUsYYFfq1c/fgANr72WzLUMoyu9g4mN0OfDcQrFZBAQWAT3TlQLgGcCPCfPnSyfaprc7gffSj3XkpwIvAa6nzLG+CXglztjYhrBV8WTHawQ4ukyIFgGLWAT0SNsLgG0IS6S2cRR/6XY/YfT5akMf9XbYmzAwssSxfYCQyGbW3cmGmw68n/Aqapjj98oSweLsgDF1zA64CQcoN05bC4BtCAOpTPzx7T7C4/GuLDzzdNJfxAdtDwKfpLtF1TCeDPyJasfxXsodQ58EBHU8CbiMsGKqGqJtBcDqhJX5SmzI0vX2Q2DG4KeicTYDvkOZonAhcBLe4UAYb/ER4mdYvC134ONYBAR1FAG/xqX1G6MtBcAywOuBuyPitU3ePj/oCWmQtQhxl1q98XTC3a7Cgkp/I81xLb0HgkVAUEcR8NGsPdAStaEA2Bm4NCJO23AXqLbsPLcCcBThfXuJY3UB6TaWabuZhIt6yidzl2ftwcQsAoLURcAIsE/WHmhCTS4AZhLepzqyP287cZCTU9B04D8IS46WOD5XEvaNmFJ3R1tiJ+pZb+NvOTuxFBYBQeoi4Fpg+aw9iOA7i7x2AL4KPLF0IBO4i/DlvY4wvewmwquJuxa1+xb9d2Nb/0JY530K4a51eWBNYJ1FbW3C++stCGv6l04sTb2rnULYGfEjlJlSdDvwQR5ZQbDvViAsqvQ66hlAem0Nn1nFXML6BKm3Ej5u0f9uy1bC5wHPJt1Wwo8nzJT5fwk+SxU17QnAMoTVwZoyyO8m4LuENfb3I+waWKeZwLaEueufIzxmzv1ue2HNfaxiO8Je5iW+Aw8QXjX0cQGlJXkWIUHXedxfk603g/FJQJDyScCDOHC2qCYVAOsTlkotcZEfa7cTRnO/mOZ8MZcjjIP4AGGr4rqLo/l5ujWQVYD/psxroPmEwYXup/CIlQh3rnWfj9tJc5eZmkVAkLII+Grm2DVOUwqAfVjyEqF1t78DHyLMH2/DXPjVgcOA7xMeT6Y+Hpfk68pS7UR4zZL7+zBCmE64Wf1dbJUDgBup//gvBA7K1KcqLAKCVEXAw8AGmWPXIqULgKmE90C57/BuBT5GeNzeZisCRxDeT6ba2e4jWXswsXdSZqe+XxIKQT1iVcJTsRzHfz5wZJ5uRbEICHYizcZaTbjm9FLJAmAm4S4218V9hDCA5QWEkeRdsz5hkNotVD9Gs4ENcwc+znTCLIRc34mxdjFhgJMe7V+I+z4N0/5Ou3ZKtAgIDiZ+8a3bcaB9EaUKgLXIN6hrHnA8/dl/fTpwKGG8wLDH6t8LxDtmJmHxlxzfibF2PWHAZRte/eS0KvBl8pyDhYt+V2umhI1jERC8j/h+uy5AASUKgC2BayJ+76BtNmFGQZ8Hce3HYAMrF1B2Os6yhKczORLOKGG65lsW/V492iHkG4/zV8JOnm1mERAK6Kr7Poy147NHrewFwDOBf0b8zkHaPODT9DvxL25PwjiBxWcQjABnEtZdKGUacCr1fifG2hzC3PWVs/SsXZYFvkKe8zCfMPC2KwWYRUB4fRPzKuDG/CErZwGwK+nXlF78D+a7NGf6XhOtRXgqcAhhVHfd6xoM4hPUn3AeJizgs36mPrXRN8iT/C+lmwMtLQLgB8T19/H5Q+63XAXAswiP5Ou6qFwI7DJ071XaEdSfcE6lP+M/qvpX6j8PDxLeFXdxAO6YvhcBzyaur0fkD7nfchQA+1PPfPXRRZ/7DhxB2kabUm9ReC5hASVNLtUOfktq5wNPytabsvpcBEwD/kH1fh6bP+R+q7sA2J3wTr6Oi8pvcLGWtppKfas+XkazF5JpmidQX+KfSxhcOi1bb5qhz0XACVTv4w8LxNtrdRYA2wL3Rnz+ktp84N3076LSJa8n/ffiJuBV+L0Y1vOpJ/n/jmZu5pVLX4uAf6d6/y4qEG+v1VUAbEpYbS/1ReUqujmAqE9WJUzDS/WdeIiwWc+snJ3okMNJ+zc6G3gjrq0A/SwCtqd635wJkFkdBcA6wNURn7uk9mPC5jBqt0+R7jtxHv15t1yXPUl3Pn4JbJI3/MbrWxGwEdX7NbtAvL2WugBYlvQr/C0E3k/YQ1vtthbpxoR8Fu8yU5hJ/Hru9wFvwvOxJH0qAtaiep/mFYi311IXAKnXcZ9LWGta3XAUaS5878kdeMcdT/XzcQbhrk9L15ciYBWq92dOgXh7LWUB8IaIz5qo3UHZFeqUzjTgaYRNP2K/F3MIo4WPJoz2Xz1fNzprPeA2hjsP/wReXiDWNutDEfBEqvflngLx9lqqAmBP0m7fej1O8Wu7zQnr6aPupgAAH8dJREFU7f+Y8Ied8qI3vi0krC73ScK0U2cBVLMDg6/L8CNC0dBk6wBvJyyB/WfCuhBfAZ5L2deJXS8CnkP1flxZIN5eS1EArE2aO7vxXwIfKbbTOoR3wedTX8KfrN0JfIH2bzJTwhNY+hiefxBWDWyyKcA7Wfq4hj8DW5UKkG4XAW+heh/OKRBvr8UWAFOA0yM+Y/H2N5qxPr2G83TCPgyLbzZUul1KWBtgZn1d76QdgI8B/0vYovl4QuJfrmRQA5gGfJ3Bvhv3ETYnK6WrRcAvqB7/SQXi7bXYAuCNET+/eLuK5j9W1KPtS/qLWB3tTsLAwRXqOQxqgGnAtxjue3ELZceQdK0IWIWwUFvV2EtuSd5LMQXAf5BuStcNuItfm2xFGP1dOrEP2+4gPKLs8oY0fVQl+Y+1jxeId7wuFQFHVox3rO2XP+R+iykAHoj42fHtLsK7RzXfqsDnSTvgs0S7grBJldovJvmPEmY/lF6/oAtFwHTg2oh4HwZWyhiviCsAUrQHGW5bYZWzH2G9/dLJO2X7FrBGyoOkrGKT/1jbInfgE2h7EfDqyFjPzRSnxilZAIwAL6q/i4q0PPBFwvkqnbDraLcDz0t2tOrhKpiPlSr5jxKmjzZBW4uAlQnjKWLifG/NMWoCJQsA935uvicAl1M+SdfdRoBPAzPSHLZoyxEG2J7DI3Pz7yAsgPR8LAhSJv9R4Kl5w1+qNhYBn08Q36Y1xqclKFUA/AIXbGm6fQmrvZVOzjnbuYS1zEt6LmFXtKXF+RvCmgt9lDr5zyM85WqSNhUBzyAsxhUT23k1xKUBlCgAbsD3rk33Jpo3pz9Xux7YOvoIDm914OQh4ryG/v0dpU7+o4SnKk3UhiJgGeDCBHEdkTAmDSF3AbAA2C1Lz1TVBymfhEu3fwI7xR7IIbyQ4dfiHwV+kjHG0upI/gto1uP/xTW9CIhZ9W+s3YjTcovJXQB8JE+3VMEU4BOUT75NabOBfaKO6OTWAr4XGefONcfYBHUk/1HasfBMU4uADYH7E8Typsg4FCFnAfAnrPSa7LPkT7ILCI+yzyBc4L8MfIYwqOibwE8JjxjnFohtlLCe/B4Rx3RpDiesUBgb42driq8p6kr+n8jZiUhNLAJ+mCCGq2jOwNteylUAzAeekqlPGt57yPM9eBD4JfAuYDtg2QHjmwpsAvwLcBzw10zxjhIWvEq5sdB6hN30UsX3+4SxNY3J/xFNKgIOTPT7X1DhdyuhXAXAMbk6pKEdQb1z/B8mvKt+KWG+cCrrA28lzSCkydptwOMTxPxvpN8a+fIEcTWRyf+xmlAErEyaBcHOGLr3Si5HAXAVzd9FrK/2AB6invP+T8KOcjm2dt4a+J8a+zIKXEb1AmYj6ts7oYsrqJn8l6x0EfCVBL9vDuGJngrLUQAcmK03Gsa6VBt5PlmbDXyYtHf7g1of+BThVUMd3+VTGG4RninAawhbz9b19/WpIeJpA5P/5EoVAfuQ5mnhO6N6r2TqLgDOzNcVDWEa9Wzj+31CYVHaJoS97Ov4Tr99iBjq3ip5BHjaMAem4Uz+g8tdBKwAXJfgd1yKg8Ebo84CYAGwTb6uaAgfIO25vp0wQK9p9mHyVfWGbQ8B2y7ld04lTG2aTdrfO1H7TtUD00Am/+HlLAJil/sdJawYuEOy3itanQXAyRn7ocE9nbSr/J1DGNneVKsQphSm/G5fysQzGLYgvJOv629qfPsL3dk+1eRfXY4iYDfil/sdBb6QvPeKUlcB8DCwecZ+aDCplu4ca19c9Jlt8GrCdNRUfT9q3GdPA95BWFe+jr+nxdvphMKmC0z+8eosAmYCVyb4vJspMy5IS1FXAXBizk5oYG8j3cXhfZljT2Ev4G7SHIN5hPf8WwMXJPrMydq9wKvozm6AJv906ioC/pDosw6ur+uqqo4CYCHhUaiaZQPSvZd+S+bYU9oSuJU0x+EK6p16OL79lHAOu8Lkn14dRUCK1qc9K1qljgLgR1l7oEF9mTTnt413/ovbgnRFQN3tHsLriy6ZxnA7Hw7aujYlsopZwFmU/96OtTmkWURLNaijANg9aw80iM1I8/77hNyB12gbwiP10hfIpbVTgHXqOgCFeOdfvyY9CXhrzX1VhNQFwKV5w9eAvkH8uf0d3du447mkGd2cut0BHFZjv0vpevJ/AmFp7Tcu+mfJgdBNKAL+QDjnaqjUBUCqfaaVzibEJ7l/ElbZ66L3UT7hj2/fBtastcdl1JX8P5mzE0uwH0ueXXMB8KxCcZUsAuYRxtuowVIWAHOBVfOGrwF8nPhz+6/Zo85nCnA25RP/LTRzMaUUupz8P8Tky+OOAP9ZKL5SRcCgK2aqoJQFwDcyx67JzQTuIu68npI96vw2JxSwpZL/1+hu8dzl5P8Ghov5P8qEmb0I+B0++m+FlAXA8zLHrsm9nLhzOo/+jOB9F/kT/43A/jk6V0iXk//WDD8FdA7l9srIVQTMIYyFUAukKgDuYeKlUVXWL4k7r8fmD7mY5QiP4XMk/hHgeLqzlO9Eupz8l6H64k8fKhDvmBxFwJuz9UbRUhUAX8sctya3BmFJ5qrndPaiz+iTN5GnABgl3D3eBVwD/JkwDuEnwOcIj5b3IwzgbOOj1C4nfwjLPlftw58LxDtenUXAmYTNsNQSqQqAF+YOXJP6N+LOaR8XVZlJ2NkwVxEwaKFwKWHfhcNp/myMrif/LYjb8+Ge/CE/Rh1FwB00e1MwTSBFATAfN3loop9Q/ZwupD/v/hf3Gcon/cnaNYSnbgcTipam6Hryn0r8bo/3Zo96YimLgBHCmhpqmRQFwNm5g9aklgEeoPo5/WX+kBvj6ZRP8MO0BwjbHR9E2XE4XU/+kOYVUZMWS1uTuNeEY+2zuQNXGikKgC6sDd81TyXunL40f8iNsSLhcWbpxF6l3UsYXPik5Edl6fqQ/DclzWZaTVm1EMLaBLH9uYQwgFYtlKIA2CN30JrU66h+PhcAq+cPubj1gKNJt11w6XYuYWpu3VsH17Wxz3/VHPcwphAGuMX2aT5hYGcTrAncR1x/5gFPzh240oktAB4Gls8etSYTc0H+bYF4S9oM+Dqh8CmdtOtolxEGhNYxm6APd/4AryFNvz6eO/ClOI74/rw3e9RKKrYA+GP+kDWAi6h+To/OH24RGwJfIc070Da0S4FnJzlyQV+S/0bA/cT36+80Z8DmJgy/iNHi7WbCQEK1WGwB8N/5Q9YAYra5PaBAvDnNBN5J3CDJNrezCGNEYvThsf+YnxHfr4XArrkDX4pvE9+nI7NHreRiC4DX5Q9Zk1iNuHO6dv6QszkQuJ7ySbh0W0hYV2DFCsewL3f+EL+Wxlg7LnfgS/E0Jt+8aLJ2OWGmkVoutgDYJX/ImkTMNLb7CsSbwyrAlymfeJvWrme4rWr7dOe/LmEb7Ni+XQeskDn2pUkxmLGru1b2TmwB0NUdzNpsf6qfz0sKxFu35wK3UT7ZNrWNAF9g8iTVpzt/gB+T5tjulTvwpdiX+D6dR/0zS5RJTAHQhCUt9VgvoPo5Pa1AvHWZQbizjH3c2Zd2DUseG9C35P9i0vSvSWOkpgIXEt+nJo1lUKSYAuCiAvFqcjEXr28XiLcOG1F9t7Y+tznAixY7ln1L/msTNmmK7d+NNGu3x8OJ79OPs0etWsUUAKcUiFeTexXVz+lXCsSb2g7ArZRPpm1uXwam0693/mO+T5o+ppxyGWsGcDVx/VlA/hUmG6NLIx6nAI8DtiIMdKnqliTRKLWY7TgXJouijBcTiphSS5OOEAbW/Y2wAM/fgJsIgyvvXfTP+wlrD8wiLKK1ImEzrdWBJwBPJOw4twXhSUaJ962vJmwG9U/gsMSf/Sng7Yk/M5WDF7VYXwPOSPA5qbyWsJRxjJMI32e1zJbA64ETgfNJN//56Ix90OBiHvV9s0C8qbyV/O/7FwJ/Ao4Bdif9wihrAYcS3iX/PXPf6mhNfewPoQBLMVj0Fpo1OHol4E7i+jQX2CB34KpmbUIS+CrwD+r7Y35Drg5pKM+j+jlt6zu+D5EviT0MnEr4G1szR+fG2Qj4f8BfKsZesjU5+QN8gzT9PCh34JP4MPF9+mj2qDWU5YGXEOZ4LiTPH/ThWXqmYe1B9XN6dvZo4/0Xeb7vVwPvJu61WUpPBT5NmgFrdbemJ/+Yonl8+1buwCexLvE7GN5NWEdDDTMF2JPwvqnEsqZNq3QVxCwEdEOBeGPkuPP/NWGxnKbOfV6e8PrjFsol+KW1pif/VQjjNGL7eTuwRubYJ5Ni8au3ZY9aSzWV8F4wZsOXFG3/ujuqSjai+jldSHs2+HgH9X6/f8dwq+SVthxhsNcNlL0ujG9NT/4Qxkal6OuhuQOfxBbEb3R1A+UG1Gox0wlrUzdlMFCbLo59MpUwn7vqeX1K/pCHtj/1Dfi7lHYXt7MI731jd3uLbW1I/vuS5nv0g9yBD+AHxPfrZdmj1oQOo3mbmOxWZ4cV5WKqn9emr/M9nXr+Fh4CjiLMme6CLQg7/5W4NrQh+a9Imu/R3cA6eUOf1I7EFzaXEDelWAlsQ3gHWTrZT9T2rbHfivNdqp/Xpm/z+XzSf5fPB7bO2YmMXkbeMUJtSP4QdkNM0d+X5A58ALF7vIzS/W3BG21V4LPEv8Opsz2/tt4r1gepfl5fWCDeYXyWdN/hhcD7CCveddkTCa82TP7BHqR59N/EvTNSzGj4dfao9X/2Is2o1LrbEXUdAEV7DtXP6+MLxDuMFO82RwmbWfXpLmcmcAIm/1nEL4s7SljZcf3MsU9mGvBX4vo1Ajwjd+AK7zY/Sr55/LHt1fUcBiUwE7iD4c/pH0oEO6TvEf/dvYyw7G4fvY7015gmr+2/uE+Tps+vyh34AF5BfL++lz1qsRnt273sLbUcCaXyBoY7nyO0Y2ZH7Nz/X9CsXdpKOBR4kHTXgk/kDb+ynUhT/PyC5q0LMZP4lV/nA5vnDrzv9idsEFI6oQ/b3lfHwVAyU4D/ZfDzeXSRKIcXs9DRz3Be85hnke66s4DmPzZeDric+L4+QNhMrWlSrIvxxexR99xrafZAv6W1z9dwPJTWdOBzLH3A0zzgzaUCrKjK9LbTMfkv7pmkmyHwF5o9hfKjpOnn63IHPoDVCDs3xhY2TZvO2FlTCdtilkzgNxM3YOSnyY+K6vI0wuZQNxLO3cPAVYR3txsXjKuqzRluDfyfAssWibT59iM8+k1xTflA5tgH9XTS3GidTTPnxn+C7p67zlkWOIX8Cf8iwgphz+ORDU32i/i8y5IeFeUynea9v6xie0IRO9n39CRCn7Vkh5Pm3fg8mldQziDNFMg5hLFaTbMR4bjH9O12wsJIqtl04EfkSfgLCY9KXwtsuIR4toj4/Ll0I5GovdYEjmPix9gXAS8oF1rrvI00151v5g58Eh8gTb/emjvwAX2N+L69PnfQfbQM8H3qT/y3AccCmw4Q03LEVf7rVToSUlozCCO8X0gYVLtx2XBaK8UUyxHC05kmeAppXm+cRzMXi9qGMAAzpm9X0+yxG50wjVAZ15n4ryYs+zns486YRYd2HvJ3SWqulQhjQ2KvRb/JHfgElgH+THxf5gFbZo59UD8lvn+HZY+6h+pcges64JVUf8/524jf/cqKv1NSMz2NNGsE7JE57sW9hzTX13fnDnxAuxPftz/ia9zavYV6Ev+DhLnbsVObvh4RwwmRv1tS86S4ZpWcJbQVaYqYPxGeJDTNFMKqnbH9a8PCX622L/HvaCZqvyTdUqbvi4jj0kQxSGqOZQiDKGOuUSOEd9S5TSNNcnwIeHLm2Ad1MPH9OyN71D2zOfGLMyzeHiT9iM2YqYALcFlVqYtS7Cn/9exRp5vNcHTmuAc1Hfg7cX1bCGybO/A+WYEwTz5l8r8a2K6GWFcn7g/dx0hSN32FuGvWQ4SpmrlsTpieHHutvYTmjox/LfH9Ozl71D3zJdIm/9OAlWuM95qI2N5bY1ySylmD+P0C3pQp1qnAOZGxjhJWDKzjRiuFFYBbievfgzRzL4PO2Jf4R2fj2wnUPxDlOxHx/azm2CSV8zHirl8XZYrz9ZFxjrVjMsVbxfuJ71+btm5unZWBG0iX/D+aKe6Y92YP4jKSUletTVgGN+Y6Vvf75seRZlOjy2nuhlFrAvcR1797Ca98VZOvki75vz1j3LtFxnpIxlgl5XUccdeHT9UY2xSq7Q65eFtAGPjYVJ8lvo/vyR51j+xFuuT/ocyxzyCugv5G5ngl5bMBcbvpXVljbEdGxJWrSIm1KWFAZUz/bgZm5Q68L6YSFo1I8UX8QubYx8RsUnQPzR01KyneacRd1zavIab1CNee2GvutcDyNcSXSswYrbH2quxR98jLSJP8f065TSdeM2CMS2pOB5S66zDirg91zAY4PTKmUcKc+N1qiC2VbYnfqvkKmrmiYSfMBG4k/ot4FbBK5tjH23gJcQ3avpQ/ZEmZLEfc3fbPE8fz0ohYxrfPJ44rtRTjG/4le9Q98m7iT9ADwNa5A5/A36jeh/sI81QlddPxVL8+zCHdXei6pFll9Tqafc2KWaV1rP0ue9Q9Mgu4i/iT1JRd9T5JXD+OzB+ypEz2J+76kGo64A8j4xglrNWyT6J46jCV+P0YRoFdcgfeJ7HvzUcJj3iasiXjTsT1JdeiH5LyWwGYT/Xrw78niOFFEb9/fDs+QSx1egnxffxh9qh7ZArx6/3PBjbJHfgkriCuT9vnD1lSJudS/drwlcjfvQZwe8TvH2s3A6tGxlKnGcQtzz5KWNfgSbkD75PYx2GjwBuyRz25/ySuTyfmD1lSJh+k+rUhdvvwFNPhRoHnRMZRtzcT38fYYkuT+DlxJ+hKwtaOTfN44vYymENYPlRS9+xJ9WvDPMK77SqeH/F7x7cSWxQPY2XgTuL6OBdYP3fgfbIB8XMzD84e9eBid9X6dP6QJWWwOnHXhiqJaRXgpsjfO0rYSW+1Cr8/p2OI72eTNzTqhLcQd4LOpzkD/ybyKuL6Nw8rUKmrYu5Qqyy6c1LE7xvfXlDhd+e0HvEbL91F2fVkeuH3xJ2kg/KHPJSVCDtHxfSx1JLGkuoVMxDw5UP+rgMiftf49t0K/cwtZp2FsfbW7FH3zMbEvSO/lnLL/Q7jE8R9ER8ENsoetaS6nUj168JRQ/yelYF/RPyusXYnsFbFvubyROI2XBoFrqe52xm32viBK4cQ9/j+C4TxA013HOELWdWywPsSxSKpOa6O+Nlhpt99gjDeKtYbgTsSfE6djiF+pcT3E268VKOzqV6hzaXZ808XdzJxFekCYLvsUUuqU8wCaP8z4O/Ym7gnrWPt1JiOZhK7ANsocAnVZ1hoQDOIG6Txv/lDjrIN8X+Ef6IdrzwkDebF1HsNXJ7wlCE2Kd5LOwYjx4ypGGvPzh51D+1M3Ek6LH/I0X5B/Jezjq1AJZVxINWvBWcO8Pmfj/j88e1lsR3N4CDi+3l27qD7Zuyd/zuBj1b8jHmEBXIeSBJRPrsT/wV7ANiKMJdXUrvtCfyq4s/eDvxoKf//GYStfmMfZ88jvMKEMObqXsKOpfcs+t/XAH8FHor8PTGmEVZH3CriM0aBZwJ/TBKRluonVK/Sflwg3lRi+j3WTsketaQ6PIM0d+il28OEBHwy8Hpgw5QHaQCvjIh9rLVhemNn3E31E/X2AvGm8iTCgL7YL+u/5g5cUnK7UD5519FGgAuAdwGbJztaE5tJ/BTH+Rni1CJrEXeydsgfclInEP8H9gBhvquk9tqb8sk6RzsXeF6iY7a4dyeI73M1xaYJ7Ej1EzWPMC++zVIsUzkKXIyLVUhtlmLgWpvaBaRdRng1wliEmJgewE3XspkKbBbx8xdSdrBJCreQZpOfpwCfSfA5kspo+qp6qW0P/AD4JWmeYL6H+PX6P0UYUKlMPkD1am3QxS+abhZp5ueOAkdkjl1SGv9J+bvyUm0+YZXUFSoeu40Jq/XFxHAHsGLF368KYp8AXJsqkMLmAq8lfAljfRF4fILPkZRX1eTXBdMJSwtfQLWnAR8k/nXwB2jfdPLWO5vqFVvXRr9/lTTV9Bm5A5cU7VjK34k3od0HPH+I4/ZkwpoEMb/zKkIRosz+RPWT9swC8dZpNeBW0vwRbZ05dklxXkr55NuUNgJ8hME2iDs9we87dIDfoxpcTvWTtkWBeOv2QtL8AbV5fQSpj9YjvAsvnXyb1L7E0ouAPRL8jgsm+R2qUcyiDW3YkKKK7xH/pT4he9SSYp1E+aTbtPbfTJygpwDnJ/j8vZZ4NlS7mHmbsVM+mmpl4mcFfCV71JJirQbcSPmk27Q2URFwSILP/dlSz4Zq9zDVT94yBeLN5amEhY6qHpt35w9ZUgKbETbVKZ10m9beMe4YTQeujPy8hYT1U1RQTAHQ9ZXv/p3qx2b7AvFKSmMl4GPAPymfeJvSFhCWSwb4jwSf9/XBToXqMoWwDO6sij+/FnBnunAa6WSGX9znD4QlliW123TCLoGPA5YvG8qEViUsnrMZYf7+1oTteOtyN2Hg31nELdn7EGEQ+Q0JYlKEmDEAmxSIN7flCftrD3pM5uFjLUllrEzY0+BkYDb1PAlIsXfKp+o6ABpOzICXviS6dYHLGCz5H1AoRkkab0XgrcDNlHllsKR2D7B6jf3WEC6k+oncvUC8paxE2DRoSetdnwlsVSw6SZrYcsDRxA1qTtkcIN0gZ1L9RL6iQLylrQwcRtg45COEPQRS7KQlSXXagrBtecnkfxPVx5ypBl+n+sn8WIF4JUnVLEfcNT+2var+LmoYH6T6yTy1QLySpOqmAB8nf/K/jHpnKKiCV1D9hF5eIF5JUrxPkbcAODBPtzSMnal+Qh8mvBOXJLXLVOD75En+52bqk4a0EmHrx6on9nn5Q5YkJbACcAX1FwA75+qQhnct1U/sfxWIV5KUxo6EdfnrSv6OFWu4mMdAFxeIV5KUzgnUk/wXAFtm7IcqeDPVT/BCwkp5kqR2Wpd6Fgo6IWcnVM32xJ3kt+YPWZKU0OdJm/znAOtn7YEqmUbY5anqib4of8iSpIS2Im0B8JG84SvG94g72U/OH7IkKaE/kyb534VTxBtv6rj//bPIz3p55M9Lksr6caLP+QhwX6LPUgarseSd7gZp9wOrZo9akpTKrsTf/V8HLJs7cMX7AXEn/v35Q5YkJTKT+DUBXpI9aiXxfOJO/N3AitmjliSlcj3Vc8AlPPrVslpkBmHwRkwR8M7sUUuSUvk11a//Ly4QrypavFKbD3wn8jPfi3M/JamtHoj4WQf+tchEj2r+J/IzVyRsMylJap+5ET/r4/8WmehkXQicGfm5hwH7R36GJCm/WRE/OyVZFKrdkqq1Dyf47OMIW01KktpjpYifXZgsChV1DvHzQb+dPWpJUozrqX7N3y5/uKrDfsQXAKPAK3MHLkmqZBZx6wCslz9k1eUC4guAOcA2uQOXJA1tN6pf6xcQNpZTR+wEjBBfBFyHlaEkNd0HqH6dv6ZAvKrZV0jzKuBSYJXMsUuSBncR1a/xjvnqoNWBO0lTBPweWD5v+JKkATyJuOv7m/KHrByOJE0BMAr8HKcHSlLTfJG4a/uO+UNWDlMJd++pioDzgTWy9kCStCTrE7cd/N3A9OxRK5tNgXtJVwRcvegzJUllfZW463nsEvJqgUNIVwCMArcCe2btgSRpvF2In+313OxRq4gvkLYIWAC8HzeRkKTcVgGuJe4a/k9g2dyBq4xlgT+TtggYBc7CtQIkKZepwKnEX7s/mjtwlbUZ6aYGjm/3EaaSLJOvK5LUS58n/pr9EGEAoXrmmcBs0hcBo8DFhFUIJUlpTQH+izTX6q9njl0N8mxgPvUUASPAKbi7lCSlMouwYl+Ka/RDwOZ5w1fTvJg0+wUsrZ0O7JyrQ5LUQU8C/kq66/In84avpnoz9RYA418NvBVYJ0+3JKn1lgeOJdyxp7oW3w6snLMTarbXEKb05SgEFhCeCrwCeFyGvklS26wMvAu4g/TX4Bdn7Ida4oXELSdZtV1L2LXwJYQxA+41IKmP1iAs2PZdYB71XG+/ka03qtWUGj5zT8Lc0pVq+Oxh3AT8fdE/Zy9q9yz658MF45KkFKYTbnbWBB4PbAlsQb2Lql0HbAvcX+PvUCZ1FAAATwVOw4V9JKkr5gJ7AH8sHIcSqatSvAh4CvCzmj5fkpTPCHAEJv9OmVbjZ88FvkV47P6smn+XJKk+bwZOKh2E0qrrFcDidiUsPuGSkZLULu/G9f47Kddd+Y2EJSPXIrwayFV4SJKqGQFeB3ymdCCqR4lEvAvwRWCbAr9bkjS5B4FXEl7jqqNKvJe/ETiBsIf0TriPtCQ1yT+AA4AzSgeiepUamDcCnA+cTCgAnoxbAEtSaacD+wFXlw5E9WvKu/g1Ce+a3ozrS0tSbvcQlg0+gbDan3qgKVPz5gJnE758DxF2rZpVMiBJ6oFRwpPYA4HfFo5FmTXlCcDiphGWFH4pcDAws2w4ktQpo8BPgaOACwvHokKaWgCMtxpwGGGjn2dS7zrXktRlc4EfAJ8CLikciwprQwEw3lqEASr7AbsBG5YNR5IabyHwB8JaLN8F7isbjpqibQXA4jYEdiTsTrUNsPWif9eUsQ2SlNt84CrgXOAs4FeEadfSo7S9AJjIdGCjRW1tYPVFbWxQ4aqF4pKklOYDDxDu6O8DbgcuA64BFhSMS5IkSZIkSZIkSZIkSZIkSZIkSZIkSZIkSZIkSZIkSZIkSZIkSZIkSZIkSZIkSZIkSZIkSZIkSZIkSZIkSZIkSZIkSZIkSZIkSZIkSZIkSZIkSZIkSZIkSZIkSZIkSZIkSZIkSZIkSZIkSZIkNcz/B7SrUaVYMfKEAAAAAElFTkSuQmCC;" vertex="1" parent="1">
          <mxGeometry x="104.4299999999999" y="458.15" width="70" height="70" as="geometry" />
        </mxCell>
        <mxCell id="H38q9NPHP6kc8f1uUd1Z-27" value="Data Preprocessing" style="text;html=1;align=center;verticalAlign=middle;whiteSpace=wrap;rounded=0;" vertex="1" parent="1">
          <mxGeometry x="104.00000000000006" y="528.15" width="60.54" height="30" as="geometry" />
        </mxCell>
        <mxCell id="H38q9NPHP6kc8f1uUd1Z-44" value="" style="shape=image;verticalLabelPosition=bottom;labelBackgroundColor=default;verticalAlign=top;aspect=fixed;imageAspect=0;image=data:image/png,iVBORw0KGgoAAAANSUhEUgAAAQAAAAEACAYAAABccqhmAAAACXBIWXMAAAdhAAAHYQGVw7i2AAAAGXRFWHRTb2Z0d2FyZQB3d3cuaW5rc2NhcGUub3Jnm+48GgAAIABJREFUeJztnXl81NW5/9/Pd7YkgOICUUgCKoKQCVqxrVqVUGVJUOptm252b61e/dna1toKwU4LaO1yu17b2tt7W7tZ6aoVEBAStYoWqkLColgxiSgBq0IgmeV7nt8fExQ1M8kks+e8X69RMud8z/fJZM7ne7bneQRL0VC5uOmtqHwL9K1AWa7tOYKoQouD3tS2dNYfcm2M5TUk1wZY0sOEhevmG8f5IxDItS1JEf1g+5JZd+TaDEscJ9cGWIZOxaKm/zCO82fyvfMDqNyYaxMsr2EFoMCpWNT0HyL8HvDl2pYBMmXSNSvyX6iGCVYACpgJC9fNF+F3FE7nB3BeOa60kOwtaqwAFCgFM+e35DVWAAoQ2/kt6cKbawMsqTGYzq/I5I6lM5/KoFlvorKx6WXg6Gze05I6dgRQQNgnvyXdWAEoEGznt2QCKwAFgO38lkxhBSDPSeGQj2bDHktxYQUgjxnoPr/AzwSezJJZliLCCkCeMtBhv8DP2pbOvELBZMk0SxFhBSAPSbXzg9jhv2VQWAHIM2znt2QTKwB5hO38lmxjBSBPsJ3fkgusAOQBtvNbcoX1BcgxlY3rLzXInfTv0vtvhJcqGptuhvV9lY9Nv3WWYscKQA6pbGyeAzqQzg9wrCrXi43iZkkjdgqQI8aFNpaB/oLCCuZhKTKsAOQIj9s1Azgx13ZYhjd2CpAjRLVcszOcd8Ne83w2bjQcmBTacFRPLFyuao7zqh6n4pQZEdfB7AcQcV6MxaJtz9180Yu5tnUgWAEodpR1e0OzunJtRiFS2XjfKSrOLEdluoFqgenhWM/xAogIRuICLiiHxVxVcTxeKhubDiI8i/KEII+4ah4p3d/92M4f1odz+Cu9CSsAxYyw1ePVz+TajIKh4U5PxZQxs0Wd+YjOBU4VjbtZDmKsNgJlGjBN0Q86IoSPLuupbGxajeifTcy9Ox9GCVYA8pPNgvx2sBcb1DjKdsera3aFZvWk07BiZEJj80lG+CSqnwDGZ/CYRQmwAJUFjscbq1zUtEaVH3b4Z95LSHLizGUFIC/RbW1La2/JtRXFzoSF95/pOuZrBq1Hs74g7kWoE6Gu0m1+UhubfsRB//90fPfc7mwaYXcBLMOOqhvun1a5uOlO45iNAheT636gTBb4gYyIPFW1uPkzNNzpydatrQBYhg3HX//gqMpFzT9Uj9mC0kD+5cYcr6o/rZwy9p/jb2yalY0b2imAZVhQ0dhcL8R+DFQNsakY0A7ShuohHOI7LMrRwDEoxyCMYWgh0ac7hvuqGpt+FPOO/Mru0FmHhmhzQqwAWIqaiaH1JW5U/hv0k4Ns4glFmxDnUZR/dHjNM4Rmxfq7aFzowSon5p4lojNQzgLOB0pTuK8oXONxu+ZWLF730Y4l73xkkPYnxQqApWgZt6i50o3pnxDOSvHSjQq3+9S965llFz47mHvvDp3XBrQBfwIYE1o/siTqzBeHBlWtZ6BioEwWnObKxeuvbF8y6xeDsSUZVgAsRUnlouYLVHQ5A/eSjILebgw/eu6mWY+n257ew1i/J6TLq2LNDyqck8LlAVT+r2px09Q2z8wb0rllaAXAUnRUNDbXg/5R4vvu/eGq8nMf7k2DfdqnQlXs/mtS7Pyvosr1FbHmk8s/s/FDm247K5oOe6wAFCCVi5veKirnMrAveNpR1TaPT9fvCs16IRf3T0ZlY/OCXhfrgSRRedAYvSYTT/y+mBhaP9GN6bKhtCHw3s7yLiW0/kMDWYvoDysABUZl4/ofoVytucwDIuDG5JWqRU0faVtWe3fuDHk9lY3rLx1gfIUeUb7ctmzmD7MXXUnFjTbfhjAiYRVhuSinKpyRvCkaKmMSa2+48yMsf587FKvyRgCqFq+rRp0FRpk4lHYcYReu89e2my/YmibT8oaqG9ddqEauzrUdvRytwu0n3HD/5BduvmBvro2pWrxuhqr8hn46vwrbxdWGtptmtWTJNAAqG5s/DsxOUuU5XyR6uSn1ht0Y3wO5op8mP1g5eexL7TCk70NeCEDVouaPqeptgF+GeDRDATwmVLW4+fK2JTNvT4N5eYOqZ16eZQAb7XViFwB/zKURlaEHx2ks9legrJ+qq/yR6Af+dcvsV7Jh12Emhtaf4Mb4TrI6ovznEXZdWbGo+QER/TnJpjLCVZWLmze1L5n5v4O1LecnAU9auLZcRf8b8KexWb+q3loe+nuRxcnTnP+93ojjeLJ2bLUvJl2zIkAs9hdgfPKa+vP2HZ0XZ7vzAxjX+RFwTJIqd7xxKtWxbOZvQBYAyQ8Bqd5asXjd2wdrW86/UDHHcw4kmRcNnhH+WOTcDLSbM9Rlba5tOBKBA47H3J9LG3qOLv0a8NaklVR+0r609vKhzpcHQ0Vj87tV9T1JquyLeH2f66ugfenM1QjzgP1Jrg+IOn+YGFo/ejD25VwAFBlTiG3ngo6baleC/jLXdvRySFUuz+VOwIRFzecKcl0/1W5vX3bBVbkIpV71lQeOEfRHyeqoyrV7Qu/oTFTevqT2AVGdDyQLJFLhxvj2YGzMizUAy8BpXzrr4+NvbPqluJyPaH9z3ozg4Dzj0diqbOybJ6L8untHmLgYJpyCKKw72jvm8lzlUVCv+x2SxH0UWNG+bOZv+munbdmsB6sWNV+hor9IXEs+WXXjut+1ff2d96VioxWAAuS5r9euJ0FygOGCr6TkOtBJCSsouxzX897WpdWRLJr1KlU3Ns1Ww8eTVNkfU7lyoO21LZv5y6rFTdNUuT5BFVHXuW1caGNNKs5D+S4A94tIUoVU5UOgM7NlkCX3xFfVNdnQP2YcPvTcsvNfyppRR1B+3b0j1PBTkrsbf2X3spntqbTb5pl5Q2Xs/neAvqPPCsLJTqzrauBbA20zvwVAZWvb0pm3JatS2dh0BmAFYBjhRp2vIjoyUbkiS59bMvPhbNp0JL4S/zLgpCRVHmj3zvxpyg2HxLiN6z7lwXmcBKdABa4//voHf7Lvm+cdGEiTOV8EtFhSYWJo/UREP52oXGBHySsHv5FNm45k/KL1ZwtyTZIqPcb1fHqwDj27l75zhyChJFWOL/VF+9xV6Iv8HgFYEnLSwrXlrj+Qie3Tfjl0SPYO9AmTblzXuRo04fdWkKtyFXp70jUrAmFHfp4svqCofu25m89/cij3afOa71S68tHeqMN93ES+MC608b8GshZgBaDAqFzUfAGO/iymTCaW9W1tAEr9mKrGplXq9V7eHjpvd7buW37dvSNQ/VTCCsqaZ5fNXJcte95IZHTZwoSdMs4/23yD2657HaFZMVnc/DVFf5+gxjEe98D7gF/015SdAhQQVaEHTkb0HpTJOTbFUagn5v4pmwEsAyUlHybJiTrj8NVs2fJGKhY316jylSRVYsbop9LhwQfQ5rngD0BifwZ1Ek6TjmSYjgBUqr7y4KBOTh1mzL9Lu9Llkz1gXPdjQMLFr+yjbx8/ecxbn4MNWbkbelniUmnO2cJfw50eUf05yY+zfyutbschMbKo6esq3Nl3BX1H1Q33T+vPKW5YCUDF5x8qlZHRm9DmT+jQgjbSObYrUrG4eY3PxK7O1oEYNVTkWxxbD1JJFgTgpIVry2OQ+Gi3mJ9k2oZEVE4pvxY04XFkFbZ7Pfr1dN93zN6Rf9kztqtTEkQ9Uo/5AHBjsjaG1RRAyiK3onotQ+z8vfhFdX7M8ayOp/rOAsLGrNxn4Bh8nk3ZuFHU8S4g8am/vUd5xv4pG3a8kcrG+06BpJ3bOEYvz0SGpk23nRUVSZpBal5/bQwbARgXWn88kvRk1uBQJnvcAwvS3m4fBF459L8Kj2XjXgNC5L/aQuf/K0t3S/gZi/LX1lAuTvypiHp+RlI3ZP1x27JZD2bKAgeSubzP6M8jdthMATxRZ1rmjoQ71Rlq+HXs/GF9eFxo43ne2IHrFZkJMiob930TorsVvbNjSe2vs3NDFaG579NvgKj5S3bseD0Vjc2fVkiWwKOtO+K7IZM2PLtk5mOVi5p2IvR1LNrxuZE5QMK/07ARAEfwZir7ombxc+zd2w1l6375wLjG9ZPBSbT63yN+SckBJh1ULLpvvPRz5FYNV2blvIRoM0iffhGinE0SARg2UwBL4eIRSRZFd2MuMiCLeH5E8rWk2+Pu21mwRZ0HkpROT3btsBkB9EM3yvNJawijgWOzY47lSFQ5I+Hmh0hWtiCPpHJR8/tBL01UrtCpbuwL2bLH8ZlmN5bwE5oOKolcoq0AxHmgfVnt3GQVKhqbviTwzWwZZHkNEWci2vf6TbYXRcffsPY4Ff1Bst1YR+SatpsvejFbNu0KzdpV2di0Hziqj+Kjx4X+Xrk7RFtf19opgCXvEdUJCQuN7MyiKXg83u8l2ncHUPhb25KZCQ7nZJSEZ1HEjSWMl2hHAAVGxaL7xjvi+arCuWhKySbThiLPOMLytqUX3JaNaDsKlYnKjM/N1jYkFQub6hQ+nKTKy+L19hfOOzMIu1Bq+ipyNHFoPCsABcS40MYyiXU9oId9zXN0KlDQkxUurGxsqmlfyv/L6M3ivgbHJSh1d4dqszLUPv76B0eJE0t62lBFv9SRJeeois8/VBoriY30B2SURHS0opFEyWIUrAAUA57YwU+QPNBElpGrKhqbv9+xdOZTmbpDRUWFHxKe8enKVry/Un/0ZpCqROUK6zqW1P48WRuTQhuOChMbacI60uONjkIYrS4j1ZFRAiNFnaNV9CiFkWIYicMoDKNFGKlxH5CRwGhgFES8PkBjvcHik30KqokE1ApAYaFZOXCUAuKongFkTAD8/oP+aOJkP1mJSVC1aP15ivxnsjoCkarG5tuVpt6OKscIemTHPToci+9WOh5QdeKd9oj1eUVBewd2wqvlQ1U4RxKn2+lXAMaFNpZ5owfOBEkY3bQ/DMbgeJ7s2L5nay5isxcNqrsZauqkNGNwMuoIdcgJ+H0kPMKVcVfkkxauLXdF/of+F8znvb6j5jR74+tQSOiCnFQAKhub5xDrul1FyodigOCAKpVTyh/xLrrv/bkMJ13IuDi/9KA30H8KrGzxQIfv/Iw6KJWZcCTqSTgCyNjnUB1q9e+Pdn42JrKYvrfXCgZRk/Chm1DVKhbdN7430+qQOv/r0bfHxJOl8+PFx+5lM9tFdS7CkEJKpYEIcGfE63vvYGPbDZR/3XLRfiBR3IWy+CGX9FK1qOmS/bG9LYh8iwLv/AAqkjBEWuIRgHjqSY/b7Bs5b2Jo/cRdoVm7MtB20dPrWTZlwsL7T1S/5GQb0P/igeeyF3dPFJpeBE7oo9A3MdRUvitEWrITVd1w/zT1mO8qzElHe/mDJjzlmkQA5OREp6+GbE7MORnYlZHGhwnP3nRB8qPLxUUiASDm6gQYmgBUhB461olFQor5TwpnYfyQQpcoXYi8BBokQSZhEU2YfyAnv6w6bn6tZFnyG+FfKAl2QDynAI8Mqt3Qem+lK58hFvm6Jj5rkE5eAboEuhTpAn0J6FI4EH9P9zvIK6a3Trxz60uu0uUoXR4/XabH+0rb08/vf91iemi9tzImCbMehz2B/BIAiyUllBbgkr6KRPUsIFlUnD6punHdhRqT7wHBFC/diPAMhgPqHO6osl/FvKLQJUYPiIculJfdmO+AE5CuAN6unaGzk2X4HRIVEc80HJNoQfTgntC5exNdO1gB2IywI2kN5QLSuoBoGa6oSIskno4mTw3+BuIhvDzfVkNCb74EPCXKF9uW1d6d4nUZRzx6VpI9x03JDksNSgAUft2xpDZpMITKxqZ7KbrFFEuO2JKk7Kzy6+4dsefbcw8ma+D46x8cVeKPLgK5lgRz5QTsR3XJUb6xP8hN2LH+UaNvT3Q8RPqZHtkpgCXv6fBc0FoZa95L32faS/wB30XAX/u+WqVq8f0fUY3dAtLnQmICjMJvvF69fldoVlp2GTKDikhzfaJSo8YKQOEh5VWN6y/KtRVDIa1h0kJiaGy6D/hAn+Uil9CHAExY1HyukebvqaY2TQAecIxz7bM3XfDP1I3NLuMXN5+NUpGgWD3qfSjZ9VYA8pNaRWpzbUReIXovKn0LAPKecaGNnz2cC298aH2FE5NbDPpBUvOZbEPl+vZlF9yZLSejoeKovifJr/hIf9vFVgAsBYHjeu41jjH0fXp1tDd6sKHi8w/dKSMi1xHjK6R2TPiQKrdwyP+tju+e250eizPPxND6EjcmH01YQfWP/bVhIwJZCoJnb7rgeVTWJCpXRxcyIrIN+DoD7/wK/M5VOa1jWe3XC6nzA7gx+SBJfP3F5+03WYodAeSOl3NtQI7o2QuDiuIr6M8V+o7dqExO8XTZRhFzbduSd/59MLbkHhVo/lzCUniofQBJW6wA5AjjDfxTYpFuyE1Yr1whysODzZA7yjfmr/tjexPtBgyUF4CF7d6Zv8y0I1MmqVp8f4MqpycqF5UfDKQdOwXIER2hc/8NfBESO7sXIS8bRxI+tfqjNVQdUZGkUXeSEFb0lu6Id3L70tr/K+TOP+maFQE1enOSKh1j944YUK5EOwLIIe1La39cubipBeWDKJOQfMv9mx4EIgpPGK/e+lyotmMobRmP+Y43JlcrpJIW7S/gXtex9MKnh3LvfKHnqLLPiXByonJR/e+Bpq63ApBj2pfUPgAkyexiOZLdoVn7Khc3/RBlYX91VdiOyxeylaEnG0xobJ5q0FCicoXOgK/01oG2Z6cAloJDop5vE/esS4L+tMOjNcXU+Wd8ZqPPwK9Ivm7UmIrjkRUAS8HR9o3zXwK+lryWXDou6gw6jmU+0jm26xbQGUmqbOnY0fm/qbRpBcBSkLTv6PwB8GiSKuUe0T9NDK0vyZZNmaRqcfNngM8nqWIU/WyqQXetAFgKk+Xvc1Xk0ySOFwhwlhuT38/4zMaEUUULgcob181V1f/up9r3O5bOakq1bSsAw42GBk9g+rwppadfnDBfXKHQsWTmFmBJP9UWdJZ3/YbQ+oJc8K68cd1cjPNnkobvY6vHq/0uivaFFYBhRCBYNyewvasNI9uN63YEgnUPlEytT5x4swBo985cpvC3pJWUhirXuaPi8w8V1KGrqkVNl2Ccv5J80a/bQT68KzRrUKcrrQAMEwLBulOAP6GMO+Lt8/DochoaMp5gI2OExPREvB8CtiWrpqrvkRGRpomh9anEBMgZVYubP6PCH0kevERRPvXskpmDTpFuBWCYoMJlwIg3vQ9v9e3Yn/BIaSGw75vnHRAxDfTvX/E2NyaPVC1af1427BoM40Iby6oa1/9aVX8KiXOiAQgsal9W+7uh3M8KwPAh8ckx45yaTUMyQduSd7aqmHlAf3vgVSrSVNm4fmm+LQ5WLVp/nuN2bVLksv7qqnJb29LaZMeBB4QVgOGCauK/tUjhTgGOoGPJOx8R1flA0viAgAdkUefYrseqbmyanQ3bknHyl9ccXdm4/kcq0izKaf1eoPKTjmUzr0zHva0AWIqKtmWzHlT0Ygbmbl2thtWVjU1/nbC4+S2Ztu2NjAmtH1m5qGlh1Of7F8jVDKA/Kvr99mUXXJWuiEVWACxFR8fSWU0Oci4wUOefBUb1n5WNTfdW3dg0m1CS0VIaOGnRfRMqFzcvKYnJvxCWAccO4DID0tixdNa16QxXVpB7oxZLfzy7dOa2caH1Z3ti8ifg/AFeNkcNcypNc4c0Nv0OMb9v88x6LB2uwyctXFse8/jmY/S9MWFu0inZm3lJkQ93LJ25Yqh2vBErAJaiZXdo1r4Zn9l44d7yrkaNew8O9PteofAl1PlSZaz5RW1sWu8gD4JpVa9va3vovN3JLp4YWl9iwp6Tjdc9E+UsQc6NwQxUnVQdvgUeN15t6AjV7kztyoExKAEQuLyysam/pB9Dn1OJXlzZ2DSpn1r9L5r0z4zKxqaE8eZ6KegDM8OVXr/4r1YsXrdCcG5HmZxiE8cJvFfR94JALEZlY9Mh4EWBF43KiyJ6FIgDGgDGuTGOxWOQoWUuD6O6dMzeUbcM1Ld/MAx2BHBq7yvTVPS+Ms1xQEHH4bckp2PJOx8ZF9r4Fm/swPWKXEcfZyJSoAwoU6iUV6fj6YwiLn934PJnl9VuS5jVM03YKYBl2NCbNyBUGXrwNo3GvirCp4B82gJtEeXrbcsu+EO28hIkFADRxNkYh4qLc8Siipj0queRvLZ442JMpiJuZfKzsqSf3jn8FRMam79nMJ8D+Qip5RFIN/8U9Oa2pbV/zHZCkiQeRrKTTH2vHX3qtR/M06klb0kBcV9dODHqPO3J1GcrkpEFGktmeXbpzG3AlVVfeeAG43EvF4ePoUzL0u33o/Jbcdz/aVvyzk1ZuuebSCgAEY/3b/5YdB9wfFrvqKx5LjTr1cCQJa90P9wzumz7gE5ApXIbYXvJyz0bDv+8e9nM9srGprWkf66/LxqTvEsZbRk4vRGGvgl8Mx5zj3eDvhs4g/SelWlTZZWIroz0RNb0l9E4GyQUgD2hd3RWLV53qRrn1wgT03S/tY46HzvyjZ0/rA9PaGx+t0F/B4njnKeCwOOOyod2/rA+fOT7jnE+6or+SkQvTMd9UHaJYz78ws21e9PSniXn9I4KlgHLJoU2HBUxh96qrvN2HM5CORWoBI7upxkD7EFpwZEnxOhmEdnY23Ze0f/Yu+FOT8Vp5dMcNeWDvouj6nF15zPLLnw2cSWVcY3rJ3uRykHfB4ih7buXznoy2VzqpEX3TXA9MgmTKKt6/xhx9nRs37M11RBMucIfnHe7xOe6b0JFLotsWfHbbNtUqBx//YOjygKRKuDVcGNiPAGEl8Ku7Hvh5vP3FUpy0aKMQ295M1YALH1hfQEslmGMFQCLZRhjBcBiGcZYAbBYhjGFcxR4yoJRJf7w2wF6up1H2blywOmPLJa0M2XBKJ8vNsXjNft6Hl+1K9fmDJaCGAEEgnVzAr7o06rOGlVnTaCEnYHqeXNzbZdleOKvqftywBd9wUH/oTF5JhCct65syuxx/V+Zf+T9CGBEcEG5S/QOhWOOeHsMIneMqK6ferB1xQs5My4fqa31+vaVneGoOc7vRjce2H7fi6lcXhqcU6nqOVXEfaq7ZXWmndEKDn+w7v2ifOP178os1+/9FZCeA2ZZJO9HAFGJXvSGzn+Y0S7aX0yCYUWgeu6kwIuljzroPxBZFfH62wM1864Y0MXnNJQGgvN+ZvC0qXCfwbMrEKz/74LOGZABBD7QZ4HyzkJMspL3IwA08TFkI3pSFi3Jc0KOyCN3qL4uEEspKj8JBOtGaRKPSwfjD+zv+iMida97G73Kv/1Ae4Q3PvGGNWMSFbiOWw4kOe2af+T9CABNHFbFwbEnGXvxVz9ymkKi1NHfFCRh+GtVuQmhrq8yUfloWgwcBnjVU3Dfx/wXAMuA8Hg4KkmxAMlSYp2YpGz04CyyFAJWAIqEbtwtwL50tyvQnO42LfmDFYBiYfPqgyp6FWkMr6Twoqj3y+lqz5J/WAEoIiJbVi1H+GyamtuvqnXdrXe3pak9Sx5iBaDICG9Z+SNUvzDEZg6JyCXR1lX/SItRlrzFCkAREm5d9V2JR7UZDBGE9/ZsWXF/Wo2y5CVWAIqUnpaVjSDfSvGyKMp7w1tWrsyIUZa8wwpAERNuWfFl4McDrO6q6kfDrSttgNNhhBWA4kbDLSuvBvl5f/UEvSLSuuqOrFhlyRusABQ/Gp464gqBRJ1bgat7Wlb1JxKWIsQKwHBg+XK3R0d+DPjLG0oM6LXhlpUDnSZYioz8dwaypIfW5ZEwoff4qx95t4icL+gBV/WvdqtveGMFYFgRMpFW/gD8IdeWWPIDOwWwWIYxVgAslmGMFQCLZRhjBcBiGcbYRcBCprbWW/a8b2zU4y13PHqiGMaoMFZFShzDCBVxUD0aQISjQDwKZUAg3oB2CRI1mB5R6UZwRdkPYBx9WYz0qMNexzi7jcY6AzH/ngNP3p32mAOW3GEFIJ+pnnusDyaJ45mEmlOBU0RlHEI5MJZ9jHV9vcM4FQ4HTxOl99/6avpXPeK/R6IogrxW79U24u/F2zKIOET8MQLBuijQKfCCIi+g+hyiOxV24nieiuw/uJNdTT0Z+0wsacUKQJ5QUjP/ZGPctznIGQrTEaYD4wFQ5dUemvuocz5gvML41wRG4v8zhsDIUpdg/VOC2WyQJ0T08bDRDbTe+++cWm3pEysAuUH8wXk1Is5FqJ4HnKNqThCR9IXzyR0e0NMUOU3gfagQEFGCddsVNjii9zsRd/WhHWt259pQixWA7DGxtsQ/sqQe5F0Cc4AT4k/2YYEAUwWmqsonXJ+XQLCuBdXVjnj+2N1yz8OkMZSZZeBYAcgkDQ2e0q0HzjHIRxA+AEkj9w43gogEDeYLgWBdO8ifHTXLu1tXPZhrw4YTVgAyQfXcY/3i/Kds67rGiJTn2pwCoBL0s0bks4GausfU6LciY3qW09QUy7VhxY4VgDRSevrF443rfgn4FDAyC7c0QCewF3he0T2i7FVx9iFqRDkkQpj4Vl8XgIO+dPhixfEpOjL+vhwTf09GKuoDAqIcL2i5IieAjAU9gUznCVDeIiK/DewtvYngvO+Ge+Sn7FwZzug9hzFWANJBba03sLfkGuO6XwNGpbn1fcBWkG2obsdhhyIdPsPeg61v64SQSfP9kjOpLlBa4o6NqZwoeCoRnQJME5gKTAFGpOU+wkSQ7wcCXC01c6/u2XLv2rS0a3kdVgCGiL+6bprs43e923ZDIQZsRvRhQTYjZpsvEtuaKLtvBIAVQ7zlINi5MtwN7cRfj76hVErOmDdBo85pOExT1TMFzgFOHvT9hMmqzhp/sO43Ee2+ktamriFYb3kDVgCGQKC6fh6idwBHD+JyI8hGxKwGWdsj7kY2rz54ZIUCPE2jPY+v2gXsAlYdfnNEcEF5lMi5gswhvgOSsiAIXBaQ0mqn+pJ32VwF6cMKwCDxB+coqeBkAAAYPUlEQVS9G/ROIJX02WFgjSjLfW7knkRP92LjYMtde4A/974IVM+dpDjvdoQGhbNSaOoM48QeLplaf27PthUFlYU3X7ECMAh8wfqzBP0VA+38wmNi+HFPSfRONq19BQry6Z42wq337gS+CXyzZPqck1Dnk6ryaZInMI2jjFOP3s2UBe9gx10HMm1rsWO9AVOlttbroLcTd6pJjugqRzkvvGXlmT2tK392uPNbXqNn8+pnerasWhwOdFYJ+hGUJwdwWU3AH/16xo0bBlgBSJGSvWUfJ77inYxtIjIzvGVVXXfryr9nwazCZ9OmaE/Lql+Hx3RXA1cBycVSuapkav2ErNhWxFgBSBEVvSx5DflpuIe32NRag6SpKRZuWfljB7dGYGOSmn71aEPW7CpSrACkQm2tFzgvYbnqf4VbVlxpD64Mne6W1e092j0ruQhIbdYMKlKsAKRA2Z7AGBIvnL4cZtQN2bSn6Glt6kLki4kr6PjsGVOcWAFIAROQQJLiUX7n4JSsGTNMSL5NKCXZs6Q4GYYCEHJKT794fOn0uoo0N+wRo3cFgnWnpLndYYs/OO8/UP1GutstDc6pZFKd9cykwAVA0WsDwbovUt3gH0j9kunzLgwEH201rtthDO0lwbp/BKZefGraDBImCjzqr5lnF6eGwsTakpJg3TJB/kA8AlFaKK2Zd04gWL/N4GkLlPByIFj355FvqRszkGtHTp8zNlBTdxvxo81FQ0ELAPEjuN8O0LUlEKy/OFlFX/Xc09XI3aCnHX5P4Sy87p8hlLbPQeFYUbkzUDNvpW/63DPT1e7wIOT4g/XvC4wofUJhIWn8fpaefvF4o7L2iL+/AJdGo/wp6YXVDf5AsO6LUeN5EuXydNqUD+T9LyPQfyw5YTLo3YFg3Sp/cH6fe/SOOJ8ASt9UoFSXBDdcMGRD39SuzHOMszEQrLsrUD1vbjpFpuiYPmdESXXd5YHgI48L+vv43zO9aMz8P/o+vHWer7r+jL6uCQTrLw7QtQX4NgPw9zDqFFzcw7w/Ciwes1KNJ8rAhoJzBfNEIFh3a1icr7HlniN83zkqYTxNlXlA09CtfRMCXILIJYHgI08L9b82xl0e2XpvawbuVVg0NHhKdhyoVVfeh+H9KoNyqBowKlqfqMzjuMdHj/jZH5w/VTDfBZ2bQhDWlvC2v+0cio25IO8FoGfz6mdKauqvUNWfMjAR8AGfC6i5jGDdjeGpI29j+XJXkCcShZ1TYTbwlTSa3RenKPpVcZyvBmrqWsXI3SCre8LmoWFzbqB67rF+nHeKwxy2db1LkbHZiHI8IrigPEa0JlG5xnxxx6Ka+ccE1HwVzFWksvYg7FbVyyjAuIa5DzI9QPzT5wfF6HdBL0rx0s2ifN7ACyIkevIan48Tuh5buTdZQyVnzJuoMXkmxfv3x0HgQUUfFmVDuCS2oVh8BkqDcypdPOeKcLYo71A4k9S8J/tBtodbVvR3LBt/Td1lovw6QXFbeOrIkwPbuj4DfB04PgUDYig/CWO+Wqhhz/N+BHCYyOZ7WoDZ/pr6d4nqd4CBbrdNV+E+ibuiHqLveaATiehFwO/SZG4qjADmCjIXgUDYZwjWPwu6Ddgq6HYRtnZ7Srbx+F9ezoF9/VI6va7CGJkKZio403oX2qYZGHM4P0mOH42zE5YILwa2dT0GJBwhJGCNGvP5Qp/OFcwI4HVMqgv4S7lWlEWkKQSXwv9FWlZ+MlmdfkYAz6NyB6JXMBBPwcHxPLBD4TlR6VT0BQfdo450GiPP+2LRzkMnRjvTFkzznIbSku4D5eJyojGMEUdOMHCCGMYgnChIpcY7e6b21NsQ7kC5vu/iAY0AJFBT14EyLk027UT1i+HWVXelqb2cUpgC0MuI6voToqI3CXyMoe9odIRbVlYmq9CPADwdblk5aeRb6sbEovp5Ra4md2HAX5Z4PqEuIAqEBQ6BuEo89x8Aoo5ofPFN47Z6gDKBgIKfdMX3S52dgn6jR0f9KuA9OBFXd/RdrX8B8E+bWy2O05IGm/arsizCyO/RujyShvbygoKZAvTFwdYVLwCf9AXrb3XQ7wHvGEJzFf7qummR1pVbh2JT7zrCQmrmf8tvzOUiXAZDjheYKqN7h9zHHH6jz9yACYbmORquxxBdq4ZfRqaNWs7y5S4ApydcvB8QIk7i4f/AMAq/8Kks6v2+FRUFLQCHibas2AicF6iuuwT4QTyibOqIyGxgSALwKlvueSnSG/XGH5w/1UHfr6ofzMQedyEjsEmRX3nx3nFwy117ABIu1Q7uBoMWAEEeFTHXdm9Z9XDRPPLfQFEIwGHCrSvv5pyGtf6urs+K0kjqsflnA99Pt12Rlnu2ASEgVFIz/2QwF6FykaJzGX7ZgvYK0oToWlF3ZXfL6naIB0tMO9UNfugazCGv50RZ2NO64lfkfP0ysxSVAADw8PJuX3X9L2NiukG+RXwuO0B0JtUN/kzO8Xq23PMv4DbgNmbM8JV2l59pRM8R0XMUeTtQTFFuosA2lA2CPqRe5+HwEysGEvIrLZQ4XeeopvwQ6ED0ih7tuZ8i7/xQZAIQmD5vCkZ+EENngwxmgXOkz7M/GIV/pt24vti0KdoNjxB/fQ+AMy4dXeJGpis6HUMNDpNQTgUqyN9F2wjwDPAUsF1UW1yVzVEZ2ZrLBTMDZw/iA6tA5Z6AlB4iWP+LcI9+oZgPahWPAExZMAqNroOhbfeI6+Q2YO/jf3m5B+4n/nqNibUl/rLAKY6HE1E5QcUZi+qJCmMFyoETgbG9r3T5HYSBThV2i9IJukdUnldhr4q+4Ii+gHqf6zmt7NlXF+3yCDEaGdxzAIAy0Kv8JXJUBD6STrvyiaIRgBJv5N2qMtS93pah7gJkjF1NPZH48lj/S2QzZviInDByVLTHifpKjgZwJTYa9YoHMxKMD0DUeygmhAWNOMhBYur2eCW+TXiEH0W/bBnML5R5xDh/Uo/ewhBcigX9YNmU2V8+tGPN7jSaljcUjQAYR06Qoc3Ynldxi8OPf9OmKPBSb9D81yUfifZRvVjp2bbiWX9N/cdF9f9IaS3odXiiHm85UJQCUDQuqmLkiRQvMUALws8E+Wg46psS2bJ6eyZss+SOyJYVvxVXJqN8XuKZnDpSbKIr6g+k2/8jbyiaEUC49W2rA8FHmoDaBFVeATYIskHVPFxMTjeW5PSmEfte74vS6XUVrpFzRfQcVc6WuJNSnyMEVZbkqw9GOigaAYCQCQcumV8Sid5gkNmiUqLKYw76kPE4D0c2v3Vr1lNpW/KS7s0rO4A7e18wsbakdETpDCOcA5wrUKXKy4r+PNK6KhcOYlmjiAQA2HT3oR5YTPz1Bu7JujmWAmFXU083/J34a1hRNGsAFosldYprBGB5E77pc8901LkSlZMUU+YQz22g8WPSh7fHDoFu8Lh646Ft9z6fO2st2cYKQBFTOr3ubGNoAgKgCJLkbKsEXY/Mpmb+W1I6A2ApaOwUoIgxhpuBZNmM3sgEv3GvzpQ9lvzDCkBxMyPVC0SkzxDZluLECkD6OIqGhjQGvEwD+vpTgANkV7rNGApO9LWgJpb0YwUgfYzxb+vKdGjxlBC4PcVLDolXf5QRYwZDdYPfOOnPDWh5DSsAaURgSUl13dfyJQtQz8HumwXuoH+/dleQRw0ys+fxVbuyYFr/1Mw/JiAH7yHxyU5LGshX//K8JIW8AH9XY67Il5DRZVNmj1Ov96SY0+vqbGIxj+M9ACCOhLu98hKb7j6UUyOPwF9d/x5x9Af9R/IdWF4AS2KsAKRAiolBXIXfiOtZGt72t6cyaliREAjWzVH4msDZA7vCCsBQsecAModH4KN43A8HgnVrVOTHEf+eFb2uupbDxNNxfRj4T2CqfSJlFysAmccB5orqXH947IsSnPdncO4MB/Y0DVsxOOPS0SXR8AIVeR9qZjN4X33LELECkEUEjgP5NOinA+GxB6ipWw+sUcO6SOvKbRRrEMpJdYHSAGepyGyDmS2x8NtU8Bbrr1tIWAHIHaNQFgALRKAkWPeSKhvUYQOwWRzZGj7m0L/SluYrW8y4pMwXjZwm6kwVOOuwv70B/+HjyJb8wQpA+ogQH+4P6jNVOAahTpQ6AFwlsK80QrDuSUG2obrNCFtVZYdfvM8fbDlzb87iG1Q3+Es9XWMxTpWqTlPR01CmAVMJxyaA82ovT0N3T5TQ1ZIGrACkj3YRZ44a82WEj5Oeea0fCCoaROKdSUSJESUQfMSFur1AJ/C8op2CdCKyW9AuVLqNmB6QqIPpAnDxvgTgOHpAo65PPd4Sr6te9bijAAxyDICDMxLUZ4yOFXHGCDpW49GWxwiUK13HGhO/4tUenv4H+x7Q7xjxrHPUbEx76xbACkBa6U36cUXp9LolxnAdcDmZe3p5gBN6X9NfHVqrvpoHUFR6/xU/l+TQO2BwQRwHUYNxAI2XH+7Dh1sQkSN+OlyWcdqBb4VHjfwfHl7eHTi9fjJ5F3C8eLACkAF6Q05dy4xLFvoj0fmi8lFgLkMIT13kvKLoXaKyPFzSuWrY7o7kACsAmWTT3YcisBxYPvItdWOiEW1A5F3A+UBpjq3LNZ2irDWif4h09axkV1NuE7IMU6wAZInetOG3ArcysbYkMLLsfEQvQnkHcbfdktxamFkUXhR4WJUHVFkT3brycew+YM6xApALdjX1hGEN8dfhVfUzjZG3KzrdgdMVqilQURD4twqPo2wR0ccNZkNky+od2A6fd1gByAdal0e6YQPxV5yGBk/gyYOn4DIZNacicipwCvHV+LHAGHLnyxEB9gq8oPFFu50iPIVxnnJikR3FmkarGLECkK8sX+6G4UnirzdTW+ste943Nur1jXUcPVGMjo2nR5PjUD0aQERHgyMqZhTqeEFLBUo0vr0YFVCFLpAoaLcgPQaNiHIQwRV4SZW96kino2a3UekMRL2dB568e18WPwlLBrECUKg0NcUOxfPV7QYez9Ztc5br25IR8iJwhcViyQ1WACyWYYwVAItlGGMFwGIZxlgBsFiGMVYALJZhjN0GHA7MuKTM1+NO9jju8QBqxKMOR8ULHR9w0CO6qdeJyTKMsAJQzDQ0eEq2HVii4dh1CD7tdftFQF49lBv/h1EigWDdonDLym/nxFZLTrBTgCImsK3r84rcwMDckP3AN0umz7sww2ZZ8ggrAMWMcnmKV4gaPpARWyx5iRWAYkYoT/USxSlID0TL4LACkD4qSoNzKnNtxBvY0H+V1+OIuS8ThgwWMebcXNtQzFgBSB8BxfMnqucem2tDDqPGfBHYn8Ilf+7ZcnaqGYUzRum0+reryvdzbUcxY4O0p8AAcwPuNKofirau+kdWjOqH0upLqgzutYhOA/H0vr1fiIfaVNGXMdIFpincuupu8iNoh5QE531SkR+SNHSazQ04VKwApEAKyUFdlB97kWUHW1e8kHHDighfsP4sB/NNkFn917YCMFTsFCAzeBD+X0z06UBN3XcDUy8+NdcG5TlSMn3ehYFg3V0O+ujAOr8lHdiDQJmlDOVaPO7nAsG6tYL8qicQuYtNa1/JtWH5QMn0OScZ9bxPlE+oYUqu7RmOWAHIDgLMVnR2IOwLU1N3rxi5W/Cs7m69uy3XxmWPkOOb/vAZojLHUec/1Ojb7Bw0t1gByD4BlAUqukCJEQjW7QC5TzAPK/JwuGXl07k2MG3U1np9L4443cGcI8o7lEcuxDhj4I35hiy5wgpA7pkCOkWRqwACwbo9wGaQbcA2wWz3+qS1N69AnhJySmr+MVE1NhWcqSCnKTpN9nE6mDLIj60Fy5uxApA+9iE8hHIJQ9tdKQdmg86GeELtaBT8wboXBbaB7BDV59Rhrxp53oPZYzzsDYf9u9lx14G0/CavR0ZOnzMmgm+sg1tuVE4Qo2Nx5ARRqlSYgj5ymiqlr60pa7q2lw4J3KXY48mZwgpA+tgf3rLyXf7gvOkOLFLkvaRxl0XgOOA80PM0nrMTEcUgYCDgi0KwrhvoFNgHoOh+cNzDIb9RjcbDgB/RrsQzAh8ROrxEoFQRL+hYYEzU4BUMSm8KUhHQ3qd6Zh7t+0XlVq8n9t1o1H80HtcKQIawApBmIi2rNgPv99fMOU3Ue62gDQrZOh1YCkxQmBD/sVcp6J1z9/FYfnUurkfWfe2/WeYphV9GxLmVlnteAghMvfjoXBgyXLACkCEiW1ZvB66koeHqku37ZxmVjwpyKTAq17blGc+B/NFRs7y7ddXfscsFWcUKQKZZvtztgbXAWmZcUhboiV4EMhuYgzA51+blgJjCPxxktSCru1veugFCJtdGDVesAGSTTXcfCsNdxF+UBudUuuI9X1TPFjhX4XSK729yAOVRgYfU4eGwP/rQ6w9C3ZM7yyxF92UrKLpbVrcDv+19wcTaEt+oEdUedLqi01EJgp4KVJL/x7bDwL+A7aK0GNgsxvNEeNtZT9snfP5iBSCf2NXUE4VNUdj0uvcn1QX8AU4RdBIOJ6pygghjUDmcKbgcOBEYkQmzFF4U2AN0irJbHToV3eMYnsfR5/DIzp7Hz27ru6P/LRMmWdKEFYBCYOfKcAS2En8lZvqcESWOM8bEPKUqlHld9arHHQVgiG/3OcpRSK9bsKHHONqNEnNEDyCirnpeBnBM7BXH6+vujpXupXX5AHKCrhrSr2jJDVYAionNqw/2wMHDP0ZzaYulIMj3eaXFYskgVgAslmGMFQCLZRhjBcBiGcZYAbBYhjFWACyWYYzdBixySmrmn6yYK0TlJEVHgwiqIsJoAAWPQrfA38Pi3MSWuBeeZXhgBaCI8VfXTVM1DwNHvRaCK+4WfKTLXa+X8DkBYxaEpyw4K0OBRSx5iJ0CFDEiLAOOGvgFTPb7o1dlziJLvmEFoLg5O9ULRHlrJgyx5CdWAFJAYsZNUpwkhVXOSD3/gNCeATsGjXpiiT9X0WR/D8sAsAKQAt1dkb0kjlhzYklw3oezaU9/CHJHipeEceTHGTFmcAjI9UnK92TNkiLFCkAq7GrqAVoSFSvyP/7qeR/MokVJ6Rk14haFgWb73SHovPATK57MqFEDpbbWGwjW3SpwWaIqYsiLBKyFjE3MkiL+4LyvChJKUkUV/i+i5ku03vvvbNmVjED13EmI5yQRVwFEvYdiQhjAEbfLa/wvH2y5K2+epvHIys7PFH1bsnpG9W35koW5ULECkCpnXDo6EAs/BRyfrJrAv0F+2NOj/8XOlfuzZF1BUzK1foI6uhDhk/S3RS3cFd6y8l3Zsax4sQIwCEqC8z6syK8GUlfgJRV+iehPwptX7ci0bQWIBIL1FwFXgi5gAGdTBF5SNW8Lt967M/PmFTdWAAZJSXX9zSr6lRQv2yrIclX318P9y+ufNrfacTwNil4GTErh0qg4WtezedV9mbJtOGEFYPBISbBuicJCUv8cFeFxYI2Iru7Z3/P33gXGomXU5EuOD/tjFwoyG3QO8UCnqfIKwgfDW1auTLd9wxUrAEPEX1P/IVG9jaEF5Awr/FNUNqiwQTw8Hj7m0L9oaoqly86sMuOSMl80cprHdWYY4RxBzgGdwlC+b8qTCv8RaV2ZPC6iJSWsAKSB0tMvHu+6sZsF+Ugam40C7cBWUVqBra7jtEYlup3Nqw/2c212OOPS0T43eorHmGpgGiInK1oNnEb6tpijID8OO7GFefN7FxFWANJIIFh/MegS4IxM3ueIMN17RWS3qnYqdDoiz6u6nY7KKzHH041R1+PIfoAeE3sZx6uYsoOvRvmdcUkZERMYoR6/K+4IVSNGnNEAHsNRxjFHi3KiomMFZyzoOGAMGQ5D3osB+QsebsibswlFiBWADFBaPe88I/JlYD72M06VsKJ3gufmSMs923JtTLFjv5wZxD99ftBxzYdV+ACvZuy19IEqPCLo73yOuaNr8+rOXBs0XLACkB2kNDj/HIP5APAuoCrXBuUBCjym8EfHcX/Xs3n1M7k2aDhiBSAH+GvmnCbqmQ3MVjhX4Lhc25QlnlaVB3BY45fYWvukzz1WAHKP+GvmTHFwzlZ1zlZ0ukANMDLXhg2RF4DNojxmHDb41PdwPvkbWOJYAchPJBCsO1mFGlE9FZFTUZ0EcirxFXhfrg3s5RBKByJPoTwJZqc4+qTX6zzR9djKvbk2ztI/VgAKkJFvqRsTCZuxjjjlxuFEMYzB4USFcjGMRcQncBSoR5ERoH4gIFCm8bP2owAVeBlAYT/gAgcFIgo9IN2IHsLwgsALinSqmOc9Sqcx3j1hp+t5Wpu6cvgxWNLA/wedi9Y0iNKGdQAAAABJRU5ErkJggg==;" vertex="1" parent="1">
          <mxGeometry x="620.9300000000001" y="445" width="86.13" height="86.13" as="geometry" />
        </mxCell>
        <mxCell id="H38q9NPHP6kc8f1uUd1Z-48" value="Data&lt;div&gt;Processed&lt;/div&gt;" style="text;html=1;align=center;verticalAlign=middle;whiteSpace=wrap;rounded=0;" vertex="1" parent="1">
          <mxGeometry x="635.0710714285714" y="544.9974789915964" width="57.857142857142826" height="27.226890756302517" as="geometry" />
        </mxCell>
        <mxCell id="H38q9NPHP6kc8f1uUd1Z-57" value="" style="sketch=0;pointerEvents=1;shadow=0;dashed=0;html=1;strokeColor=none;fillColor=#434445;aspect=fixed;labelPosition=center;verticalLabelPosition=bottom;verticalAlign=top;align=center;outlineConnect=0;shape=mxgraph.vvd.nsx_dashboard;" vertex="1" parent="1">
          <mxGeometry x="628.5699999999998" y="650.0036363636364" width="78.19999999999999" height="72.72727272727272" as="geometry" />
        </mxCell>
        <mxCell id="H38q9NPHP6kc8f1uUd1Z-74" value="Explore&lt;div&gt;Data&amp;nbsp;&lt;span style=&quot;background-color: transparent; color: light-dark(rgb(0, 0, 0), rgb(255, 255, 255));&quot;&gt;Analyst&lt;/span&gt;&lt;/div&gt;" style="text;html=1;align=center;verticalAlign=middle;whiteSpace=wrap;rounded=0;" vertex="1" parent="1">
          <mxGeometry x="609.6099999999999" y="730.0018181818182" width="108.78" height="27.272727272727273" as="geometry" />
        </mxCell>
        <mxCell id="H38q9NPHP6kc8f1uUd1Z-85" value="" style="shape=flexArrow;endArrow=classic;html=1;rounded=0;" edge="1" parent="1">
          <mxGeometry width="50" height="50" relative="1" as="geometry">
            <mxPoint x="663.4978571428571" y="589.9961344537815" as="sourcePoint" />
            <mxPoint x="663.4978571428571" y="635.3742857142856" as="targetPoint" />
          </mxGeometry>
        </mxCell>
        <mxCell id="H38q9NPHP6kc8f1uUd1Z-91" value="" style="group" vertex="1" connectable="0" parent="1">
          <mxGeometry x="264.43" y="445" width="270" height="180" as="geometry" />
        </mxCell>
        <mxCell id="H38q9NPHP6kc8f1uUd1Z-90" value="" style="rounded=0;whiteSpace=wrap;html=1;" vertex="1" parent="H38q9NPHP6kc8f1uUd1Z-91">
          <mxGeometry width="270" height="180" as="geometry" />
        </mxCell>
        <mxCell id="H38q9NPHP6kc8f1uUd1Z-89" value="" style="group" vertex="1" connectable="0" parent="H38q9NPHP6kc8f1uUd1Z-91">
          <mxGeometry x="20" y="20" width="234.9471428571427" height="133.0661344537814" as="geometry" />
        </mxCell>
        <mxCell id="H38q9NPHP6kc8f1uUd1Z-29" value="" style="shape=image;verticalLabelPosition=bottom;labelBackgroundColor=default;verticalAlign=top;aspect=fixed;imageAspect=0;image=https://cdn-icons-png.flaticon.com/512/2103/2103686.png;" vertex="1" parent="H38q9NPHP6kc8f1uUd1Z-89">
          <mxGeometry width="76.22" height="76.22" as="geometry" />
        </mxCell>
        <mxCell id="H38q9NPHP6kc8f1uUd1Z-30" value="" style="shape=image;html=1;verticalAlign=top;verticalLabelPosition=bottom;labelBackgroundColor=#ffffff;imageAspect=0;aspect=fixed;image=https://cdn3.iconfinder.com/data/icons/document-icons-2/30/647714-excel-128.png" vertex="1" parent="H38q9NPHP6kc8f1uUd1Z-89">
          <mxGeometry x="156.76" y="0.8699999999998909" width="74.48" height="74.48" as="geometry" />
        </mxCell>
        <mxCell id="H38q9NPHP6kc8f1uUd1Z-31" value="read from" style="text;html=1;align=center;verticalAlign=middle;whiteSpace=wrap;rounded=0;" vertex="1" parent="H38q9NPHP6kc8f1uUd1Z-89">
          <mxGeometry x="78.90107142857141" y="6.757310924369676" width="57.85714285714282" height="27.226890756302517" as="geometry" />
        </mxCell>
        <mxCell id="H38q9NPHP6kc8f1uUd1Z-33" value="Ip-portmapping&lt;div&gt;.csv&lt;/div&gt;" style="text;html=1;align=center;verticalAlign=middle;whiteSpace=wrap;rounded=0;" vertex="1" parent="H38q9NPHP6kc8f1uUd1Z-89">
          <mxGeometry x="156.762857142857" y="78.61235294117648" width="78.18428571428566" height="36.30252100840335" as="geometry" />
        </mxCell>
        <mxCell id="H38q9NPHP6kc8f1uUd1Z-34" value="automation&amp;nbsp;&lt;div&gt;detect ip from log where read from Ip-portmapping&lt;/div&gt;" style="text;html=1;align=center;verticalAlign=middle;whiteSpace=wrap;rounded=0;" vertex="1" parent="H38q9NPHP6kc8f1uUd1Z-89">
          <mxGeometry x="0.7117857142857247" y="96.76361344537804" width="78.18428571428566" height="36.30252100840335" as="geometry" />
        </mxCell>
        <mxCell id="H38q9NPHP6kc8f1uUd1Z-35" value="" style="shape=flexArrow;endArrow=classic;startArrow=classic;html=1;rounded=0;startWidth=20;startSize=5.67;" edge="1" parent="H38q9NPHP6kc8f1uUd1Z-89">
          <mxGeometry width="100" height="100" relative="1" as="geometry">
            <mxPoint x="136.7582142857142" y="46.756050420168094" as="sourcePoint" />
            <mxPoint x="78.90107142857141" y="46.756050420168094" as="targetPoint" />
          </mxGeometry>
        </mxCell>
        <mxCell id="H38q9NPHP6kc8f1uUd1Z-114" value="Automation Task" style="text;html=1;align=center;verticalAlign=middle;whiteSpace=wrap;rounded=0;" vertex="1" parent="1">
          <mxGeometry x="370.00000000000006" y="630" width="60.54" height="30" as="geometry" />
        </mxCell>
      </root>
    </mxGraphModel>
  </diagram>
</mxfile>
